<svg id="Layer_1" data-name="Layer 1" xmlns="http://www.w3.org/2000/svg" viewBox="0 0 401.8 400.22"><defs><style>.cls-1{fill:#231f20;}.cls-2{fill:#fff;}</style></defs><path class="cls-1" d="M510.27,307H361.47v93q0,5.67,2.74,8.79t9.36,4.82v6H293v-6q6.81-1.89,9.46-4.91t2.64-8.7V181.23q0-5.67-2.64-8.7T293,167.61v-6.05h80.55v6.05q-6.81,1.71-9.46,4.83t-2.64,8.79v83.19h148.8V181.23q0-5.67-2.65-8.79t-9.45-4.83v-6.05h80.55v6.05q-6.81,1.9-9.46,4.92t-2.64,8.7V400q0,5.67,2.64,8.7t9.46,4.91v6H498.17v-6q6.61-1.69,9.36-4.82c1.82-2.08,2.74-5,2.74-8.79Z" transform="translate(-261.58 -136.04)"/><rect class="cls-2" x="206.93" y="286.79" width="450.24" height="15" transform="translate(-346.59 235.2) rotate(-42.73)"/><rect class="cls-2" x="267.79" y="370.5" width="450.24" height="15" transform="translate(-387.24 298.71) rotate(-42.73)"/></svg>