<svg xmlns="http://www.w3.org/2000/svg" viewBox="0 0 1920 1080"><defs><style>.cls-1,.cls-16{fill:#cdedd7;}.cls-2{fill:#31abde;opacity:0.35;}.cls-3{fill:#31ded2;}.cls-10,.cls-11,.cls-12,.cls-13,.cls-14,.cls-15,.cls-16,.cls-17,.cls-3,.cls-4,.cls-5,.cls-6,.cls-7,.cls-8,.cls-9{stroke:#000;stroke-miterlimit:10;}.cls-4{fill:#31deb3;}.cls-11,.cls-12,.cls-5{fill:none;}.cls-6{fill:#37fa93;}.cls-7{fill:#382e63;}.cls-10,.cls-8{fill:#fbb03b;}.cls-9{fill:#9f455b;}.cls-10,.cls-11{stroke-width:0.75px;}.cls-12{stroke-width:0.5px;}.cls-13{fill:#cd5139;}.cls-14{fill:#29abe2;}.cls-15{fill:#b6e8d0;}.cls-17{fill:#378dfa;}.cls-18{fill:#f2f2f2;}.cls-19{fill:#8df8b1;}.cls-20{fill:#52ba7d;}.cls-21{fill:#53bb7d;}.cls-22{fill:#fafbe6;}.cls-23{fill:#36799d;}.cls-24{fill:#53c680;}.cls-25{fill:#122a43;}.cls-26{fill:#172f47;}.cls-27{fill:#42c075;}.cls-28{fill:#f4f6c0;}.cls-29{fill:#ebf6dd;}.cls-30{fill:#eef3e1;}.cls-31{fill:#c0d5d0;}.cls-32{fill:#e4f4d9;}.cls-33{fill:#4ac279;}.cls-34{fill:#548da8;}.cls-35{fill:#287197;}.cls-36{fill:#7bd298;}.cls-37{fill:#c5e9c5;}.cls-38{fill:#86d59e;}.cls-39{fill:#5bc783;}.cls-40{fill:#98bac2;}.cls-41{fill:#dde8da;}.cls-42{fill:#bad0ce;}.cls-43{fill:#4885a4;}.cls-44{fill:#3fb771;}.cls-45{fill:#43b073;}.cls-46{fill:#3dbe71;}.cls-47{fill:#5fad82;}.cls-48{fill:#54c57f;}.cls-49{fill:#d4e2d8;}.cls-50{fill:#4080a1;}.cls-51{fill:#f3f6e3;}.cls-52{fill:#277097;}.cls-53{fill:#6699b6;}.cls-54{fill:#6497b4;}.cls-55{fill:#508aab;}.cls-56{fill:#70a0bb;}.cls-57{fill:#3d7ea2;}.cls-58{fill:#5c93b1;}.cls-59{fill:#35799e;}.cls-60{fill:#d49e20;}.cls-61{fill:#d32e2f;}.cls-62{fill:#d96424;}.cls-63{fill:#88aabd;}.cls-64{fill:#8db2c6;}.cls-65{fill:#397595;}.cls-66{fill:#4e85a2;}.cls-67{fill:#93b7cb;}.cls-68{fill:#90b4c7;}.cls-69{fill:#4181a4;}.cls-70{fill:#6c9ab5;}.cls-71{fill:#86a5b5;}.cls-72{fill:#99b5c5;}.cls-73{fill:#73a1ba;}.cls-74{fill:#75a2bb;}.cls-75{fill:#95b1c0;}.cls-76{fill:#9fbfd1;}.cls-77{fill:#8f7653;}.cls-78{fill:#c0d3dd;}.cls-79{fill:#99b9ca;}.cls-80{fill:#a6c2d2;}.cls-81{fill:#8ba7b6;}.cls-82{fill:#91afc0;}.cls-83{fill:#497992;}.cls-84{fill:#a1bdcd;}.cls-85{fill:#287297;}.cls-86{fill:#277098;}.cls-87{fill:#edf1b7;}.cls-88{fill:#dc2e68;}.cls-89{fill:#3cbd71;}.cls-90{fill:#2d7c95;}.cls-91{fill:#2b7597;}.cls-92{fill:#2b7596;}.cls-93{fill:#2b7995;}.cls-94{fill:#2b7994;}.cls-95{fill:#2b7697;}.cls-96{fill:#2c7895;}.cls-97{fill:#8eb3c8;}.cls-98{fill:#82acc3;}.cls-99{fill:#85adc4;}.cls-100{fill:#9bbccf;}.cls-101{fill:#8ab1c7;}.cls-102{fill:#71abb2;}.cls-103{fill:#71b0ae;}.cls-104{fill:#84acc4;}.cls-105{fill:#3cbe71;}.cls-106{fill:#e0e482;}.cls-107{fill:#dfe37e;}.cls-108{fill:#b51a4d;}.cls-109{fill:#22a456;}.cls-110{fill:#17994b;}.cls-111{fill:#06120b;}.cls-112{fill:#07160d;}.cls-113{fill:#06130b;}.cls-114{fill:#0c2516;}.cls-115{fill:#0b2516;}.cls-116{fill:#091c11;}.cls-117{fill:#0a2113;}.cls-118{fill:#081a0f;}.cls-119{fill:#010603;}.cls-120{fill:#0c2717;}.cls-121{fill:#0a2214;}.cls-122{fill:#0f301c;}.cls-123{fill:#2e9557;}.cls-124{fill:#010402;}.cls-125{fill:#0c2616;}.cls-126{fill:#0b2315;}.cls-127{fill:#0e2d1b;}.cls-128{fill:#3cbf71;}.cls-129{fill:#ebf8f0;}.cls-130{fill:#b2cae0;}</style></defs><g id="Floor"><path class="cls-1" d="M896.05,552c19.33-54.45-68.47-98.83-72.56-184.38-3.12-65.24,44.32-115.2,53.53-124.9,62.55-65.86,154.06-62.64,243.85-59.47,34.06,1.2,237.45,8.37,255.75,84.45,12.48,51.92-72.62,88.49-58.29,149.88,11.61,49.72,79,75.49,111.82,88,67.52,25.81,86.19,4.53,161.77,29.74,46.59,15.53,106.21,35.42,123.71,83.26,16.14,44.12-13.79,84,10.71,107.06,13.85,13,26.19,2.9,55.9,14.27,47.11,18,69.6,64,74.94,74.94,6.29,12.85,29.43,60.17,13.09,105.87-6.71,18.76-25.85,53.41-128.47,89.21-91.19,31.81-167.71,36.42-239.09,39.26-117.2,4.66-156.38,2-277.16,3.57-192.2,2.49-188.65,10.45-310.47,7.13-108.15-2.94-123.41-9.56-212.92-7.13-56.29,1.52-112.62.76-168.91,2.38-82.37,2.36-123.76,5.32-135.61-16.66-14.65-27.19,31.5-63.72,16.66-91.59-4.52-8.49-18.11-22.56-107.06-19-92.79,3.67-154.09,22-241.47,11.89-18.6-2.15-42.64-6.08-55.91-25C-4,895-3.27,862.94,12.24,845.76c14.28-15.82,28.88-5.49,60.67-21.41,22.54-11.3,19.74-18.77,54.71-45.2,22.9-17.3,38.35-29,60.67-35.69,29.14-8.76,50.18-2.75,74.94,0,33.65,3.75,66.44-3.45,132-17.84,120.24-26.38,124-50.44,224.82-72.56,96.57-21.18,155.76-13,235.53-61.86C883.6,574.05,892,563.43,896.05,552Z"/><path class="cls-2" d="M57.33,853.74c84.7-30.38,87.78-88,143.77-101.07,40-9.39,49.79,15.51,124.82,6.37,33.47-4.09,60.54-12.45,116-29.58,83.78-25.89,96-36.31,148.24-52.94,102.41-32.63,266.15-59.39,390.5-55.78,94.38,2.73,64.8,19.26,234.64,45.92,186.78,29.32,242.92,16.4,359.5,44.45,44.1,10.61,234.49,60.3,207.66,150.95-7.07,23.92-27.31,92.32-220.65,135-158.82,35.09-285.83,17.64-667.51,17.49-334-.13-427.33,16.22-464.67-8.07-42.56-27.69,58.55-68.53,10.62-100-35.12-23-124.08-20.47-202.78-18.21-113.2,3.25-172.92,20.76-204.7,4.94-2.78-1.38-19.12-9.51-11.91-20.14C27.09,863.9,48.27,857,57.33,853.74Z"/></g><g id="Person"><g id="left-leg"><path class="cls-3" d="M1288.75,825.87l2.49,97.24,59.84-20-7.48-97.23Z"/><path class="cls-3" d="M1251.81,817.3c.48,27.33.93,52.84,1.35,76.7l36.44,26.77-.82-87.27Z"/><path class="cls-3" d="M1558.29,744.47c.34,19.18.65,37.09,1,53.84l25.58,18.8-.58-61.27Z"/><path class="cls-4" d="M1581.15,743.69q.94,36.62,1.88,73.23l45.06-15-5.63-73.23Z"/><path class="cls-4" d="M874.76,613.77v60l26.17-6.15,1.53-49.25Z"/><path class="cls-5" d="M879.38,472.19a40.83,40.83,0,0,0,15.39,12.31"/><path class="cls-6" d="M877.3,467.57c3.74-1.13,7.75-2.17,12-3.08a150.2,150.2,0,0,1,36.1-3.08c.39,2,1,4.61,1.72,7.7,1.36,5.57,2.73,10.11,3.43,12.31,2.34,7.28,4.86,15.13,10.32,23.09a65.78,65.78,0,0,0,17.19,16.92q2.58,5.39,5.15,10.78a16.85,16.85,0,0,1-3.43,3.07c-3.43,2.33-4.73,1.45-6.88,3.08-2.53,1.93-1.56,3.81-5.16,10.78-.6,1.17-.77,1.38-1.72,3.07-3.68,6.58-4.61,9.48-6.87,13.85-4.73,9.14-6.56,7.87-8.6,13.86-2,5.71.21,5.44-1.72,12.31-2.5,8.92-6.18,9.46-6.87,16.93-.26,2.76,0,5-1.72,6.15s-4.22.15-8.6,0c-2.2-.07-2.59.18-10.31,1.54-13.43,2.37-15.35,2.15-17.19,1.54-3-1-4.9-2.76-6.88-4.62A28.65,28.65,0,0,1,870.43,603c-4.81-12.64-1.72-26.16-1.72-26.16,5.09-59.69,5.86-80.68,5.16-86.19-.4-3.09-.27-6.16,0-12.31a20,20,0,0,1,1.72-7.69A20.29,20.29,0,0,1,877.3,467.57Z"/><path class="cls-6" d="M981,458.34c.78-1.45,5.77,1.53,13.85,0,2.79-.53,3-1,6.16-1.54,4.54-.73,7.33-.19,10.77,0,6.34.34,6-1,15.39-1.54,7.15-.42,8.15.31,15.39,0a102,102,0,0,0,13.85-1.54,16.66,16.66,0,0,0-4.61,6.16c-1.15,2.69-1.11,4.86-3.08,6.15-1.38.91-2.39.51-3.08,1.54-.89,1.34.32,2.75,0,4.62-.22,1.28-1.2,3-4.62,4.61l-18.47-18.46a51,51,0,0,1-7.69,0,42.77,42.77,0,0,0-10.77,0c-1.08.16-2.44.44-3.08,1.54a4.08,4.08,0,0,0,0,3.07,8.52,8.52,0,0,0,1.54,3.08c1.15,1.56,1.66,1.57,3.08,3.08,2.88,3.06,2.18,4.51,4.61,6.15.69.47,1.57.91,1.54,1.54s-.76.77-1.54,1.54a6.43,6.43,0,0,0-1.54,3.08c-.41,1.46-.94,3.35,0,4.62.42.56,1.31.88,3.08,1.54s2.7.74,3.08,1.54a2.23,2.23,0,0,1,0,1.53c-.55,2.61-1.33,3.33-1.54,4.62-.39,2.45,1.66,4.55,1.54,4.62a46,46,0,0,0-4.62-6.16l-1.54-1.54-3.07-3.07a68.45,68.45,0,0,1-6.16-7.7c-4.53-6.42-6.8-9.64-7.69-10.77C985.36,462.56,980.17,459.79,981,458.34Z"/><path class="cls-6" d="M1198,498.35c-.84,2.32-2.21,6.35-4.62,12.31-.58,1.45-1.72,4.23-4.62,10.77-3.76,8.51-5.64,12.76-7.69,16.93-7,14.17-8.16,13.1-9.23,18.47a96.12,96.12,0,0,1-3.08,13.85c-.32,1-.4,1.19-1.54,4.62-3.5,10.52-3.7,11.68-3.08,12.31,1.26,1.29,4.53-1,10.77-3.08a57.58,57.58,0,0,1,16.93-3.08c3.92,0,11.16.66,20,6.16a33.23,33.23,0,0,0,1.54-7.69c.2-2.58,0-3.92,0-6.16a44,44,0,0,1,1.54-10.77,82.46,82.46,0,0,1,4.61-13.85c1.65-4,1.66-5,6.16-24.63,3.4-14.82,5.15-22.43,7.69-32.32,5.58-21.63,4.71-14.42,6.16-21.54.74-3.62,1.11-6.19,3.08-9.24,3.39-5.24,8.78-7.65,12.31-9.23a40,40,0,0,1,10.77-3.08,35.13,35.13,0,0,0-15.39-4.61A33.44,33.44,0,0,0,1238,446c-5.52,1.88-9,4.84-12.31,7.7A64.83,64.83,0,0,0,1214.88,466,142.17,142.17,0,0,0,1198,498.35Z"/><path class="cls-6" d="M1212.78,583.17c-5.43-5.57-8.63-8.85-12.93-10-2.27-.6-4.88.13-10.17,1.6a90.92,90.92,0,0,0-15.56,6c-7.13,3.44-7.15,4.18-12,6.49-5.69,2.7-11.2,3.86-22.44,6.22-8.31,1.75-14.26,2.62-23.74,4a162.08,162.08,0,0,1-17.09,1.91,83.6,83.6,0,0,1-17.8-.67,103.69,103.69,0,0,1-13.43-3.19c-11.57-3.27-12.51-4.65-19.08-6.22-8.54-2-15-1.61-23.34-1.06-13.28.86-20.05,1.31-24.35,4.59-5.22,4-9.72,10.33-15.52,8.07-3.15-1.22-4.72-4.23-6-3.11-2.21,1.92,1.9,11.16.24,23.44-1.18,8.79-4.61,13.94-3.89,14.74s4.25-5.62,9.93-11.73c5.18-5.57,9.58-8,15.53-11.35a76.42,76.42,0,0,1,20.68-8c15.54-3.49,27.5-2.16,37.47-1.6,1.15.07,14.32-.4,39.64-1.31,14.38-.52,32.18-1.16,53.87-3,48.07-4.13,43.26-8.38,55.47-7,2,.24,9.58,1.22,9.77-1.76C1218.13,588.68,1216.09,586.56,1212.78,583.17Z"/><path d="M879.38,472.19a75.71,75.71,0,0,1,12.31,12.31,66.54,66.54,0,0,1-6.51-5.8A67.72,67.72,0,0,1,879.38,472.19Z"/><path d="M893.23,487.58a31.59,31.59,0,0,0-2.5,7.63,25.25,25.25,0,0,0-.44,4,38.57,38.57,0,0,0,.14,4,40.65,40.65,0,0,1-.36,8.1c-.37,2.7-1.19,5.29-1.44,7.92-.63,5.3,1.19,10.51,1.79,15.89a37,37,0,0,1,.28,8.15c-.28,2.71-.74,5.34-1,8a156.71,156.71,0,0,0-.93,16.06c0,5.34.54,10.73.3,16.14a125.7,125.7,0,0,1-1.54,16.09A136.31,136.31,0,0,1,884,615.31a152.26,152.26,0,0,0,3.06-15.82,130.65,130.65,0,0,0,1.26-16c.11-5.36-.44-10.71-.45-16.12a158.42,158.42,0,0,1,.84-16.16c.28-2.69.75-5.37,1-8a35.91,35.91,0,0,0-.23-7.95c-.31-2.65-.84-5.27-1.31-7.94a27.09,27.09,0,0,1-.34-8.14c.31-2.73,1.17-5.3,1.58-7.93a40.34,40.34,0,0,0,.49-8,39,39,0,0,1,0-4.05,27.19,27.19,0,0,1,.56-4A30.4,30.4,0,0,1,893.23,487.58Z"/><path d="M877.84,487.58a66.88,66.88,0,0,0,4.64,8.94,59.91,59.91,0,0,0,6.13,8,26.21,26.21,0,0,1-7-7.45A27.65,27.65,0,0,1,877.84,487.58Z"/><path d="M877.84,507.58a43,43,0,0,0,3.38,5.72,43.5,43.5,0,0,0,4.32,5.06,14.75,14.75,0,0,1-7.7-10.78Z"/><path d="M876.3,546.06c.58,2.51,1.15,5,1.8,7.48s1.34,4.93,2.13,7.36,1.61,4.84,2.48,7.24c.44,1.21.91,2.4,1.39,3.58s1,2.38,1.44,3.58c-.68-1.1-1.28-2.24-1.89-3.37s-1.12-2.32-1.65-3.5a70.24,70.24,0,0,1-4.65-14.72A61.69,61.69,0,0,1,876.3,546.06Z"/><path d="M873.22,553.75a30.74,30.74,0,0,0,7.7,20A21.1,21.1,0,0,1,873.22,553.75Z"/><path d="M894.77,479.88a11.66,11.66,0,0,1,6,4.83,12,12,0,0,1,1.52,3.62,10.7,10.7,0,0,1,.2,3.86,18.9,18.9,0,0,0-2.57-6.95,17,17,0,0,0-2.27-2.89A24.29,24.29,0,0,0,894.77,479.88Z"/><path d="M897.85,563c.87.76,1.72,1.53,2.64,2.22s1.81,1.38,2.77,2a39.81,39.81,0,0,0,12.44,5.4,31.54,31.54,0,0,0,3.35.68c1.13.21,2.27.33,3.42.46a27.81,27.81,0,0,1-6.93-.39,29.28,29.28,0,0,1-12.72-5.53A26.87,26.87,0,0,1,897.85,563Z"/><path class="cls-6" d="M1298,601.46c-1.83,1.59-2.36,2.73-6.15,7.7-4.08,5.32-5.09,6.13-6.16,7.69-4.62,6.7-2.52,15.77-1.54,21.55,1.71,10-1.35,1.74,0,36.93.43,11.28,1.47,30.89,4.62,58.48,3.67,32.19,5.77,36.23,6.15,53.87.54,25.14-9.41,38.18-3.07,43.09,4.42,3.43,10.8-1,35.39-7.7,8.64-2.36,17.46-4,26.16-6.15,92.39-22.42,182.25-55.28,275.48-73.87,24.89-5,44.74-8.13,55.4-24.63,8.1-12.52,2.83-39.13-7.69-92.34A153.68,153.68,0,0,0,1655,573.76c-6.75-10.25-11.36-14.18-16.93-15.39-7.92-1.73-12.79,3.13-30.77,6.16-5.34.89-8.69,1.1-13.86,1.53-24.54,2.08-59.18,6.74-101.57,10.78-83.35,7.93-125,11.89-141.58,12.31-16.29.41-36.48,6.76-41.56,7.69A21.51,21.51,0,0,0,1298,601.46Z"/><path d="M1334.92,618.39c0,12.06-.05,24.12,0,36.18s.22,24.12.52,36.17.6,24.11,1,36.16q.32,9,.71,18.08l.78,18.07c-.48-6-.87-12-1.27-18s-.69-12-1-18.07c-.59-12-1-24.11-1.26-36.17s-.35-24.12-.28-36.19S1334.48,630.44,1334.92,618.39Z"/><path d="M1293.36,629.16a31.29,31.29,0,0,1,9.44.84,30.89,30.89,0,0,1,8.83,3.61,30.91,30.91,0,0,1,7.35,6.07,35.19,35.19,0,0,1,2.91,3.78,30.49,30.49,0,0,1,2.25,4.17,40.19,40.19,0,0,0-5.72-7.42,36.09,36.09,0,0,0-7.3-5.74,37,37,0,0,0-8.52-3.73,35,35,0,0,0-4.56-1A40.37,40.37,0,0,0,1293.36,629.16Z"/><path d="M1298,655.32a25,25,0,0,1,8.08.34,25.22,25.22,0,0,1,7.62,2.92,24.77,24.77,0,0,1,6.26,5.22,28.6,28.6,0,0,1,2.41,3.29,23.87,23.87,0,0,1,1.79,3.62,32.24,32.24,0,0,0-4.77-6.39,29,29,0,0,0-6.2-4.88,30.2,30.2,0,0,0-7.28-3,28.75,28.75,0,0,0-3.91-.77A33.19,33.19,0,0,0,1298,655.32Z"/><path d="M1299.52,606.08c2.9.43,5.78,1,8.66,1.53s5.76,1.13,8.59,1.93,5.64,1.62,8.4,2.59q2.08.74,4.14,1.5c1.36.55,2.73,1.08,4.07,1.68l-8.44-2.45c-2.81-.79-5.62-1.6-8.44-2.36s-5.66-1.42-8.49-2.14S1302.34,606.92,1299.52,606.08Z"/><path d="M1294.9,609.16a94.94,94.94,0,0,1,9.5,1.1c3.15.5,6.27,1.17,9.37,1.93s6.16,1.67,9.17,2.71q2.26.78,4.5,1.63c1.47.6,3,1.19,4.4,1.86l-4.56-1.4c-1.52-.47-3-.93-4.57-1.36-3-.86-6.11-1.71-9.19-2.47s-6.16-1.47-9.26-2.15c-1.55-.33-3.11-.65-4.67-.94Z"/><path d="M1342.61,615.31l35.4-3.37,17.7-1.62,17.67-1.91q17.67-2,35.3-4.28l35.23-4.75c11.76-1.54,23.53-3,35.33-4.16s23.62-2.14,35.45-2.88,23.68-1.26,35.53-1.54,23.71-.27,35.56-.11q-17.77,0-35.54.6T1554.73,593q-17.73,1.18-35.41,3c-11.78,1.24-23.53,2.74-35.28,4.31l-35.26,4.6q-17.64,2.22-35.32,4.11l-17.69,1.83-17.72,1.53Z"/><path class="cls-4" d="M882.46,619.93l404.75,218.53L1633.48,760V741.51l-343.19,77L911.7,615.31Z"/><path class="cls-5" d="M939.4,678.41l10.77-13.85"/><path class="cls-6" d="M1384.16,586.07c3.28-17.29,6.47-32.33,9.24-44.63C1401.13,507,1401,514,1402.63,503a138.35,138.35,0,0,1,7.7-29.24c1.67-4.33,3.2-7.59,6.15-10.78,4.18-4.5,9.52-7.05,18.47-9.23a109.7,109.7,0,0,1,30.78-3.08c18.57,1.07,30.07,3.66,44.63,6.16,19.08,3.27,13.76,1.3,61.56,7.69,19.35,2.59,29.67,4.18,43.09,7.7,18.2,4.77,27.29,7.15,32.32,12.31,20.34,20.87-9.91,78.62-12.31,83.1a165.22,165.22,0,0,1-23.09-1.54c-5.12-.7-8.83-1.46-9.23-1.53C1593,562.63,1531.15,568.16,1384.16,586.07Z"/><path class="cls-6" d="M1282.59,646.09c-11.74.46-27.54,1.33-46.17,3.08-33.67,3.16-28.22,4.67-58.48,7.69-30.84,3.08-45,2.36-55.4,13.85a36.48,36.48,0,0,0-7.7,13.86q.78,23.08,1.54,46.16c4.77,3.91,11.58,9.31,20,15.39,18,13,35.2,23.24,58.48,35.4,36.72,19.18,71.74,34.36,97,44.63v-63.1c-.39-33.39-4.72-46.26-7.7-87.72C1283.67,668.91,1283,658.74,1282.59,646.09Z"/><path d="M1458,463a264.74,264.74,0,0,0-16.43,25.94,202,202,0,0,0-12.81,27.85,171.59,171.59,0,0,0-8.12,29.54l-1.2,7.58-.82,7.63-.5,7.66-.13,7.69a148.17,148.17,0,0,1,1.89-30.69,164.48,164.48,0,0,1,7.95-29.75,191.79,191.79,0,0,1,13.07-27.88A218.55,218.55,0,0,1,1458,463Z"/><path d="M1493.43,467.57A165.66,165.66,0,0,0,1482.15,480a118.44,118.44,0,0,0-9.65,13.69,107.7,107.7,0,0,0-7.61,14.9,122.22,122.22,0,0,0-5.32,15.91l.9-4.11.45-2.06.57-2,.58-2,.67-2,.68-2,.75-2a99.39,99.39,0,0,1,7.48-15.13,108,108,0,0,1,9.91-13.66A115.45,115.45,0,0,1,1493.43,467.57Z"/><path d="M1536.52,469.11a56,56,0,0,0-24.72,16.15,49.39,49.39,0,0,0-4.35,6,58.19,58.19,0,0,0-3.44,6.6c-2,4.54-3.65,9.27-5.25,14-3.22,9.47-6.52,18.93-10.25,28.22q-2.79,7-5.77,13.86c-2,4.58-4.07,9.14-6.24,13.65,3.94-9.19,7.74-18.44,11.29-27.79,1.76-4.68,3.52-9.35,5.18-14.07s3.24-9.45,4.84-14.19,3.28-9.47,5.37-14.05a49.54,49.54,0,0,1,8-12.74,51.57,51.57,0,0,1,11.56-9.63A57.88,57.88,0,0,1,1536.52,469.11Z"/><path d="M1544.22,478.34c-1.53,2.38-3.09,4.73-4.55,7.13s-3,4.79-4.39,7.22c-2.85,4.86-5.62,9.77-8.14,14.8s-5,10.08-7.28,15.23c-.56,1.29-1.14,2.58-1.67,3.88l-1.55,3.93c-1.07,2.61-2.1,5.23-3.2,7.83.88-2.67,1.83-5.33,2.74-8l1.42-4c.49-1.32,1-2.63,1.55-3.94,2.15-5.23,4.55-10.34,7.1-15.39s5.37-9.95,8.37-14.73S1540.81,482.84,1544.22,478.34Z"/><path d="M1588.85,481.42c-4.6,5.68-9.28,11.28-14,16.88s-9.56,11.05-14.32,16.58c-2.39,2.75-4.78,5.5-6.88,8.45a48.55,48.55,0,0,0-2.93,4.57c-.88,1.58-1.68,3.2-2.44,4.85a69.87,69.87,0,0,0-5.63,21,62.78,62.78,0,0,1,4.92-21.31,49.55,49.55,0,0,1,5.33-9.64c2.12-3,4.5-5.8,6.88-8.58,4.83-5.48,9.72-10.89,14.49-16.42S1583.94,486.83,1588.85,481.42Z"/><path d="M1239.5,755.36a78.47,78.47,0,0,1-6.69,5.22c-2.31,1.65-4.71,3.15-7.15,4.58s-5,2.75-7.54,3.93c-1.29.59-2.58,1.16-3.88,1.71s-2.64,1-4,1.49l3.77-1.94q1.89-.95,3.75-2c2.48-1.34,5-2.68,7.38-4.1s4.83-2.87,7.23-4.35S1237.13,756.9,1239.5,755.36Z"/><path d="M1156.4,735.35a20,20,0,0,0-1.91,4.88,14,14,0,0,0-.32,5.1,10.56,10.56,0,0,0,.58,2.47,10.75,10.75,0,0,0,1.11,2.29,14,14,0,0,0,3.61,3.73,10.35,10.35,0,0,1-6.29-8.37,12.33,12.33,0,0,1,.56-5.43A13.45,13.45,0,0,1,1156.4,735.35Z"/><path d="M1251.81,664.56a73.9,73.9,0,0,0-13.21,6.17,66.68,66.68,0,0,0-11.63,8.68,65.84,65.84,0,0,0-9.56,10.92,64.55,64.55,0,0,0-3.88,6.17c-1.21,2.11-2.27,4.3-3.27,6.53a59.37,59.37,0,0,1,6.51-13.14,61.76,61.76,0,0,1,9.52-11.21,63.09,63.09,0,0,1,11.93-8.62,66.07,66.07,0,0,1,6.63-3.18A61.72,61.72,0,0,1,1251.81,664.56Z"/><path class="cls-6" d="M996.34,609.16c-4.39,1.37-10.5,3.63-15.39,9.23-3.15,3.61-4.71,8.61-7.69,18.47-5.62,18.55-4.35,22.41-3.08,24.62,2.25,3.91,6.18,5.51,7.69,6.16.87.36,17.51,11.53,50.79,33.85,11.75,7.88,37.92,26.23,55.4,33.86a39,39,0,0,0,10.78,3.08,42.08,42.08,0,0,0,21.54-3.08,40.91,40.91,0,0,0,0-4.62,42.08,42.08,0,0,0-1.54-9.23c-1.36-5-3.83-19-1.54-32.32,1.45-8.38,2.24-12.95,6.16-16.93,1.84-1.86,4.31-3.54,26.16-9.23,5.8-1.51,8.7-2.26,12.31-3.08,12-2.7,21.52-4,26.17-4.62,19.81-2.56,37-3.34,53.86-4.61,10.61-.81,25.94-2.18,44.63-4.62V633.78c0-.8.09-4.36,3.08-13.85.34-1.08.86-2.68,1.54-4.62-2.53-.52-6.93-1.5-12.31-3.08-12.08-3.53-17.56-6.69-36.94-13.85-6.74-2.49-11-3.92-16.93-4.61a66.62,66.62,0,0,0-13.85,0c-23.13,1.63,3.88-1.22-27.7,1.53-19.77,1.73-35.19,3.26-49.25,4.62-18.07,1.75-27.23,2.63-33.85,3.08-17,1.15-31.2,1.45-40,1.54C1030.31,604.79,1014.6,603.46,996.34,609.16Z"/><path class="cls-6" d="M1271.82,449.1a29.15,29.15,0,0,0-4.62,0,32,32,0,0,0-10.77,3.08c-8.39,3.71-12.59,5.57-13.85,9.23-.65,1.9-.25,3.06-1.54,7.7-.59,2.12-1.18,3.68-1.54,4.62-2.81,7.37-5,12.24-6.16,15.39-1.67,4.53-1.36,5.78-3.07,15.39a328.06,328.06,0,0,1-7.7,32.31c-2.7,9.66-2.52,7.55-4.62,15.39a112.69,112.69,0,0,0-3.07,32.32c.12,1.88.48,5.6,3.07,7.7a9.35,9.35,0,0,0,3.08,1.54,9.72,9.72,0,0,0,4.62,0c4.24-.88,9.88,3.08,12.31,4.61.8.51,7.71,2.9,21.55,7.7,7.75,2.68,17.06,5.82,27.7,9.23a22.54,22.54,0,0,1,3.08-4.62c2-2.29,2.87-2.37,4.61-4.61,2.11-2.71,1.63-3.65,3.08-4.62,2.06-1.38,4.29-.33,7.7,0,2.73.27,5.41-.34,10.77-1.54a72.12,72.12,0,0,0,16.93-6.15l50.78-6.16a73.19,73.19,0,0,0,3.08-10.77c1.37-6.67,1.21-10.57,1.54-15.39.2-2.92.5-4.9,6.16-27.7,4.54-18.29,4.1-16,4.61-18.47,4-19,2.17-21.73,6.16-27.7,2-3.08,5.38-6.61,4.62-10.78-.29-1.54-1.29-4,0-6.15a5.78,5.78,0,0,1,1.54-1.54c2.66-2.25,3.23-4.33,4.61-6.16,1.18-1.56,3.35-3.46,7.7-4.61l-13.85-1.54c-41.09-4.52-52.51-5.3-66.18-4.62-11.45.57-8.69,1.39-16.93,1.54C1308.61,454.07,1284.46,450.1,1271.82,449.1Z"/><path d="M1039.43,650.71c-.67,1-1.35,2.08-2,3.16s-1.22,2.15-1.76,3.25a53.16,53.16,0,0,0-4.63,13.93,64.3,64.3,0,0,0-.89,7.36,33.31,33.31,0,0,1-.14-3.74c0-1.24.13-2.49.27-3.73a37.17,37.17,0,0,1,4.72-14.18A34.06,34.06,0,0,1,1039.43,650.71Z"/><path d="M1048.67,623a46.76,46.76,0,0,0-7.35-.85,45.09,45.09,0,0,0-7.35.24,37.3,37.3,0,0,0-13.94,4.2A33.85,33.85,0,0,0,1009,636a39.64,39.64,0,0,0-6.47,13.16,36.52,36.52,0,0,1,2.19-7.11,37.56,37.56,0,0,1,3.66-6.51,33.53,33.53,0,0,1,11.21-9.83l1.68-.85c.56-.28,1.16-.47,1.73-.72s1.16-.48,1.76-.66l1.8-.54a15.66,15.66,0,0,1,1.82-.47l1.83-.39c1.24-.16,2.47-.41,3.72-.45A42.45,42.45,0,0,1,1048.67,623Z"/><path d="M1016.35,618.39a54,54,0,0,0-12.07,4.54,55.9,55.9,0,0,0-5.51,3.32,44.79,44.79,0,0,0-4.95,4.07,43.65,43.65,0,0,0-8,10,49.15,49.15,0,0,0-4.9,11.92,40.83,40.83,0,0,1,1.61-6.31,43,43,0,0,1,2.62-6,41.44,41.44,0,0,1,8-10.35,42.88,42.88,0,0,1,10.79-7.36,51.12,51.12,0,0,1,6.08-2.39A43.43,43.43,0,0,1,1016.35,618.39Z"/><path d="M1093.3,619.93q13.5-2.31,27.16-3.59c9.1-.88,18.23-1.41,27.37-1.7s18.28-.21,27.41.16q6.85.27,13.68.77c4.56.36,9.11.75,13.64,1.28-9.11-.62-18.22-1.08-27.34-1.29s-18.25-.23-27.37.07-18.22.76-27.32,1.47c-4.55.35-9.09.78-13.63,1.26S1097.83,619.37,1093.3,619.93Z"/><path d="M1144.08,630.7a75.72,75.72,0,0,1,8.1-.75c2.71-.13,5.42-.1,8.13,0s5.42.36,8.11.75a74.82,74.82,0,0,1,8,1.52l-4-.39c-1.34-.14-2.68-.26-4-.37-2.69-.2-5.37-.4-8.06-.51s-5.38-.2-8.08-.26S1146.79,630.7,1144.08,630.7Z"/><path d="M1201,627.62c2.67-.56,5.35-1,8-1.46s5.37-.82,8.07-1.19l8.09-1,4-.53c1.35-.15,2.7-.32,4.06-.43-1.32.33-2.65.6-4,.91l-4,.81c-2.67.52-5.38.84-8.07,1.23s-5.4.7-8.12,1S1203.75,627.47,1201,627.62Z"/><path d="M1407.25,472.19a20.4,20.4,0,0,0-6,4.3,15.39,15.39,0,0,0-3.66,6.29,56.64,56.64,0,0,0-1.35,7.26c-.39,2.46-.84,4.91-1.46,7.32a34.52,34.52,0,0,1-1.09,3.59c-.43,1.18-.92,2.32-1.36,3.47a59,59,0,0,0-2.2,7A76.57,76.57,0,0,0,1388,526c-.16,2.46-.17,4.93-.27,7.42s-.31,5-.56,7.44c-.54,4.94-1.24,9.85-2.19,14.73s-2,9.72-3.13,14.54-2.43,9.61-3.79,14.37c2.3-9.64,4.5-19.3,6.17-29,.82-4.88,1.55-9.77,2-14.68.23-2.46.41-4.92.5-7.39s.08-4.95.24-7.44a77.35,77.35,0,0,1,2.32-14.74,62.14,62.14,0,0,1,2.27-7.13,54.32,54.32,0,0,0,2.52-6.93c.66-2.37,1.15-4.79,1.58-7.23a56.43,56.43,0,0,1,1.5-7.31A17.64,17.64,0,0,1,1407.25,472.19Z"/><path d="M1404.17,459.88c-3.81,2.05-7.55,4.22-11.15,6.59a119.45,119.45,0,0,0-10.44,7.61,120.65,120.65,0,0,0-9.63,8.6c-1.54,1.51-3,3.07-4.49,4.66s-2.89,3.21-4.3,4.85c1.23-1.78,2.57-3.48,3.93-5.17s2.82-3.29,4.31-4.88a96.54,96.54,0,0,1,20.21-16.32c1.86-1.12,3.75-2.19,5.67-3.19S1402.17,460.71,1404.17,459.88Z"/><path d="M1382.62,519.9a80.4,80.4,0,0,1-8.08,9,82.72,82.72,0,0,1-9.42,7.69,74.59,74.59,0,0,1-21.65,11,58.85,58.85,0,0,1-24.19,1.75,62.69,62.69,0,0,1-22.84-7.93,69.5,69.5,0,0,0,11.17,4.61,61,61,0,0,0,11.77,2.55,59.1,59.1,0,0,0,23.81-1.94,63.53,63.53,0,0,0,11.16-4.46,104.34,104.34,0,0,0,10.34-6.2A87.14,87.14,0,0,0,1382.62,519.9Z"/><path d="M1390.32,492.19a61.38,61.38,0,0,1-12.07,4.95,68.29,68.29,0,0,1-12.86,2.4,70.44,70.44,0,0,1-13.07-.15,69.37,69.37,0,0,1-12.79-2.58c2.13.43,4.26.83,6.41,1.11s4.29.57,6.45.7a77.41,77.41,0,0,0,12.92-.08,73.39,73.39,0,0,0,12.74-2.14A83,83,0,0,0,1390.32,492.19Z"/><path d="M1368.77,459.88a135.69,135.69,0,0,0-13,11.23,124.38,124.38,0,0,0-20.94,27.15,136.72,136.72,0,0,0-7.56,15.48c.91-2.74,2-5.42,3.1-8.07s2.43-5.23,3.79-7.78a104.91,104.91,0,0,1,21.08-27.33c2.12-2,4.31-3.85,6.56-5.64S1366.36,461.45,1368.77,459.88Z"/><path d="M1341.07,459.88c-1.7,1.66-3.42,3.28-5,5s-3.23,3.47-4.76,5.27a96.14,96.14,0,0,0-8.36,11.43,85.32,85.32,0,0,0-6.58,12.52c-.92,2.18-1.76,4.39-2.5,6.64s-1.3,4.55-2,6.82l.74-3.48c.27-1.16.45-2.34.8-3.48.65-2.3,1.41-4.56,2.26-6.79a77.46,77.46,0,0,1,6.44-12.76,87.06,87.06,0,0,1,8.63-11.4A88.81,88.81,0,0,1,1341.07,459.88Z"/><path d="M1301.06,498.35c-1.22,3.54-2.54,7-3.88,10.53s-2.72,7-4.12,10.43-2.85,6.92-4.34,10.35l-2.25,5.14c-.78,1.7-1.53,3.41-2.34,5.1.6-1.77,1.26-3.52,1.89-5.28l2-5.25c1.32-3.5,2.72-7,4.12-10.43s2.85-6.92,4.34-10.35S1299.46,501.73,1301.06,498.35Z"/><path class="cls-5" d="M1265.66,453.72a41.5,41.5,0,0,0-12.31,10.77,40.81,40.81,0,0,0-4.62,7.7"/><path class="cls-7" d="M1125.62,318.29c1.34.84,2.69,1.23,9.23,1.54,6.15.29,9.22.43,10.77,0,4-1.12,4.47-2.89,9.24-4.62a32.75,32.75,0,0,1,7.69-1.54c2.43-.32,2.79-.21,3.08,0,1.7,1.25-.12,5.08,0,12.31.09,5.32,1.12,6,1.54,6.16,1.47.6,2.81-1.95,4.62-1.54,2.07.48,1.8,4.22,4.61,9.24.75,1.32,3.68,6.56,6.16,6.15,1.76-.29,1.5-3.14,4.62-7.69,1.42-2.08,4.33-6.34,7.69-6.16,2.24.12,3.29,2.14,4.62,1.54.85-.39.92-1.47,1.54-4.62,1.2-6.1,1.71-5.87,1.53-7.69-.31-3.27-1.94-3.65-1.53-6.16.37-2.34,2-3,1.53-4.62s-2-1.41-3.07-3.07c-1.17-1.88-.16-3.72,0-6.16.32-5.1-3.3-9.25-4.62-10.77-1.59-1.83-2.25-1.77-10.77-6.16s-10-5.58-13.85-6.15a26.31,26.31,0,0,0-7.7,0c-4.35.62-6.38,4-9.23,3.07-1.57-.51-2.54-1.91-3.08-1.53s.47,1.76,0,3.07c-.68,1.89-3.64,1.31-7.7,3.08-4.32,1.89-4.18,3.94-7.69,4.62-3.22.62-5.93-.62-6.16,0s3.34,2.36,3.08,3.08c-.34,1-7.3-1-7.69,0s5,3.08,4.61,4.61c-.45,2-10.23.82-10.77,3.08-.35,1.45,3.46,2.95,3.08,4.62-.44,1.93-5.94,1.57-6.16,3.08-.15,1.07,2.59,1.6,6.16,4.61C1123.9,316.12,1123.54,317,1125.62,318.29Z"/><path d="M1128.69,302.9a14.33,14.33,0,0,0,0,4.29,11.51,11.51,0,0,0,1.41,3.92,12.87,12.87,0,0,0,2.7,3.2,19,19,0,0,0,3.56,2.44,11,11,0,0,1-4.05-1.82,10.73,10.73,0,0,1-3.07-3.32,10,10,0,0,1-1.33-4.33A9.7,9.7,0,0,1,1128.69,302.9Z"/><path d="M1134.85,307.52a20.21,20.21,0,0,0,3.3,4.38,23.71,23.71,0,0,0,4.39,3.31,9.15,9.15,0,0,1-5.09-2.6A8.64,8.64,0,0,1,1134.85,307.52Z"/><path d="M1153.32,309.06a19.82,19.82,0,0,1-8.54-2.16,19.56,19.56,0,0,1-6.85-5.54,45.11,45.11,0,0,0,7.29,4.65A46,46,0,0,0,1153.32,309.06Z"/><path d="M1181,299.82a8.73,8.73,0,0,1-1.37,3.31,10,10,0,0,1-9.4,4.39,17,17,0,0,0,6.29-2.59A15.41,15.41,0,0,0,1181,299.82Z"/><path d="M1187.18,299.82a12.61,12.61,0,0,1-.67,2.19c-.12.36-.28.71-.43,1.06s-.36.67-.55,1a12.24,12.24,0,0,1-3,3.45,33.84,33.84,0,0,1,2.12-4A24.62,24.62,0,0,1,1187.18,299.82Z"/><path d="M1170.25,284.43a40,40,0,0,0-8,2.21,40.71,40.71,0,0,0-7.34,3.95,18.67,18.67,0,0,1,15.39-6.16Z"/><path d="M1194.87,299.82a4.67,4.67,0,0,1-2.42,5.79,4,4,0,0,1-2.2.37,7.76,7.76,0,0,0,3.17-2.42A8.7,8.7,0,0,0,1194.87,299.82Z"/><path class="cls-8" d="M1194.9,353.46c-1.52,1.19-2.51.86-5.18,1.72-1.84.6-4.57,1.48-5.17,3.45a3.2,3.2,0,0,0,0,1.73c.84,3.54.57,12.13-1.73,17.25-1.37,3.05-3.78,4.9-8.62,8.62a44.76,44.76,0,0,1-12.07,6.9c-5.79,2.14-10.34,2.32-10.35,3.45,0,.74,2,1.36,3.45,1.72a24.32,24.32,0,0,0,5.17,0,25.94,25.94,0,0,0,6.9-1.72c5.8-2.2,6.21-1.06,13.8-3.45a72.36,72.36,0,0,0,15.52-6.9c2.19-1.32,3.94-2.54,5.18-3.45-.44-.83-1-2-1.73-3.45a77.28,77.28,0,0,1-3.45-8.62c-2.79-8.89,1.13-18.68,0-19C1196.29,351.65,1196.11,352.5,1194.9,353.46Z"/><path class="cls-8" d="M1184.1,344.45c1.94-3.39,1.43-3.73,3.08-6.15s4-5.92,7.69-6.16c2.34-.15,5.3,1,6.16,3.08s-.94,3.22-1.54,7.69c-.48,3.54.49,3.61,0,6.16-.94,4.87-5.48,9.65-9.24,9.23-.61-.07-.71-.22-3.07-1.54-6.24-3.47-7.37-3.41-7.7-4.61C1179,350.43,1181.11,349.65,1184.1,344.45Z"/><path d="M1191.79,341.37a3.13,3.13,0,0,1,.77-3,3.43,3.43,0,0,1,3.17-.94,2.5,2.5,0,0,1,1.48,1,2.93,2.93,0,0,1,.49,1.64,3.55,3.55,0,0,1-1.29,2.81,4.39,4.39,0,0,0,.52-2.74,2,2,0,0,0-1.44-1.76,3,3,0,0,0-2.4.55A3.56,3.56,0,0,0,1191.79,341.37Z"/><path d="M1191.79,344.45a1.75,1.75,0,0,1,1.39-.45,2.15,2.15,0,0,1,1.38.74,2.49,2.49,0,0,1,.31,2.79,6.48,6.48,0,0,0-1.07-2.14A2.78,2.78,0,0,0,1191.79,344.45Z"/><path d="M1188.71,352.15A7.12,7.12,0,0,0,1190,349a3.15,3.15,0,0,0-.24-1.54,4.86,4.86,0,0,0-1-1.42,2.66,2.66,0,0,1,1.71,1,3,3,0,0,1,.57,2A3.75,3.75,0,0,1,1188.71,352.15Z"/><path class="cls-8" d="M1125.74,316.19c-2.26,1.08-2.73,4.64-3.16,7.9-.71,5.43,1.12,6.44,0,11.05-.85,3.5-2.28,4.44-1.58,6.32.78,2.07,2.93,2,4.74,4.74a10.51,10.51,0,0,1,1.58,4.73c.87,5.83,2.23,11.57,3.16,17.38.44,2.73.29.71,4.74,15.79,2.15,7.3,2.62,9.2,4.74,11.06,3.36,2.95,7.75,3.07,11,3.16,4.77.12,8.09-1,14.22-3.16a66.7,66.7,0,0,0,15.79-7.9c4.56-3.12,5.7-4.77,6.32-6.32,1.12-2.77.43-4.83,0-9.47-.67-7.22.51-7.49,0-12.64-.73-7.39-3.74-12.77-6.32-17.37a59.63,59.63,0,0,0-9.48-12.64c-3.29,2-4.36,1.95-4.73,1.58-.73-.71,1.1-2.74,1.58-6.31.14-1.07.71-5.36-1.58-7.9-2.73-3-8.16-2.08-11.06-1.58-3.8.65-4,1.65-9.48,3.16-4.43,1.22-6.64,1.83-9.47,1.58C1130.61,318.8,1128.49,314.88,1125.74,316.19Z"/><path d="M1141,362.92a2.86,2.86,0,0,1,2.36.23,3.07,3.07,0,0,1,1.52,2,3.57,3.57,0,0,1-.43,2.47,3,3,0,0,1-1.92,1.42,4.54,4.54,0,0,0,1.21-1.76,3.67,3.67,0,0,0,.16-1.93,2.85,2.85,0,0,0-1-1.6A4.23,4.23,0,0,0,1141,362.92Z"/><path d="M1145.62,349.07c2.62-.14,5.17-.24,7.72-.51s5.08-.65,7.67-1a23.1,23.1,0,0,1-7.57,2A23.37,23.37,0,0,1,1145.62,349.07Z"/><path d="M1133.31,349.07a5.21,5.21,0,0,1-2.31.5,5.08,5.08,0,0,1-2.31-.5,5,5,0,0,1,2.31-.5A5.08,5.08,0,0,1,1133.31,349.07Z"/><path d="M1142.54,344.45a33.27,33.27,0,0,1,9.13-2,32.5,32.5,0,0,1,9.34.49c-3.12.14-6.19.24-9.25.51S1145.65,344.07,1142.54,344.45Z"/><path d="M1131.77,342.91a31.32,31.32,0,0,0-3.22,1.27,21.75,21.75,0,0,0-2.93,1.81,4.78,4.78,0,0,1,2.49-2.7A5.12,5.12,0,0,1,1131.77,342.91Z"/><path d="M1139.47,349.07a32.06,32.06,0,0,1-6.16,20,80.62,80.62,0,0,0,3.8-9.78A77.53,77.53,0,0,0,1139.47,349.07Z"/><path d="M1136.39,378.31a3.48,3.48,0,0,1,.62-1.07,1.05,1.05,0,0,1,1.09-.44c.4.19.54.63.78.95a1.15,1.15,0,0,0,1,.56,4.16,4.16,0,0,0,2-1.23,3.7,3.7,0,0,1,2.31-1.07,10.88,10.88,0,0,1,4.94,1.06,31.18,31.18,0,0,1,4.42,2.36l.62.39-.59.43a19.74,19.74,0,0,1-4.88,2.6,25.43,25.43,0,0,1-2.63.78,24.16,24.16,0,0,1-2.69.54,10.63,10.63,0,0,1-2.76,0,5.1,5.1,0,0,1-2.54-1,5,5,0,0,1-1.58-2.2A3.9,3.9,0,0,1,1136.39,378.31Zm0,0a4.51,4.51,0,0,0,1.81,4.73,6.61,6.61,0,0,0,5.12.6,33.47,33.47,0,0,0,5.09-1.62,24.54,24.54,0,0,0,4.62-2.57l0,.81a42.58,42.58,0,0,0-4.23-2.45,10.34,10.34,0,0,0-4.57-1.33,3.31,3.31,0,0,0-2.16.82,4.51,4.51,0,0,1-2.22,1.14,1.24,1.24,0,0,1-1-.65c-.23-.33-.35-.78-.73-1s-.8.14-1.07.43A3.2,3.2,0,0,0,1136.39,378.31Z"/><path d="M1139.47,379.85a19,19,0,0,1,4.61-.5,18.64,18.64,0,0,1,4.62.5,21.55,21.55,0,0,1-9.23,0Z"/><path class="cls-9" d="M1134.85,384.47c-1.5-1.34-4.49-1.17-6.16,0-.79.55-.58.84-1.53,1.53-1.45,1.06-2.51.81-4.62,1.54-1.66.58-1.29.83-3.08,1.54-2.81,1.12-3.55.44-6.16,1.54-1.8.76-1.67,1.19-3.07,1.54-2.34.59-3-.52-4.62,0-2.45.77-2,3.57-4.62,4.62-1.75.71-2.37-.41-4.61,0-1.33.24-2.26.84-6.16,4.61-3.49,3.37-3.31,3.44-6.16,6.16a43.21,43.21,0,0,0-4.61,4.62c-1.8,2.24-1.29,2.32-3.08,4.61-2.62,3.35-4.23,3.86-4.62,6.16-.24,1.43.33,1.58,0,3.08-.42,2-1.61,2.68-3.08,4.61-.78,1.05-.56,1-3.07,6.16-2.41,4.93-2.24,4.21-3.08,6.16-1.9,4.38-1.57,5.35-3.08,7.69s-2.8,3.06-4.62,4.62c-5.33,4.58-11,12.37-9.23,15.39.78,1.34,2.83,1.41,4.62,1.54,12.06.84,27,4.91,27.7,9.23.15,1-2,2-1.54,3.08.29.8,1.48.87,1.54,1.54s-.9,1.16-1.54,1.54c-1.59.94-3,2.21-4.62,3.07a29.38,29.38,0,0,0-6.15,4.62c-3.29,3.3-2.08,5.05-6.16,12.31-1.94,3.46-3.64,5.59-3.08,6.16s2.14-.93,4.62-1.54c3-.73,5.78,0,9.23,1.54,7,3,11.87,7,16.93,10.77a140,140,0,0,0,13.85,9.24c6.85,3.91,9.48,4.35,20,9.23,3.91,1.81,9.2,4.37,15.39,7.69a18.28,18.28,0,0,1,0,4.62c-.91,6.83-5.45,9.49-4.62,13.85.18,1,1.15,2.18,3.08,4.62a55.56,55.56,0,0,0,9.23,9.23c4.83,3.76,7.25,5.64,10.78,6.16a16.16,16.16,0,0,0,9.23-1.54,15,15,0,0,1,0-4.62,16.05,16.05,0,0,1,1.54-4.61c1.77-3.85,1-6.49,1.54-10.78.46-3.72,1.85-6.58,4.62-12.31,3.62-7.49,5.9-9.64,9.23-15.39,2.83-4.88,4.37-9.45,7.69-18.47,3.39-9.18,3.35-10.56,6.16-16.92,1.23-2.79,1.24-2.52,6.16-12.32s5.08-10.42,7.69-15.39c4.52-8.6,6.83-12.95,9.23-15.39,3.7-3.74,5.37-3.67,10.78-9.23,3.75-3.86,3.83-4.8,6.15-6.16,5.29-3.08,11.39-2,13.85-1.53,4.14.74,4,1.7,13.85,4.61,0,0,5.85,1.73,9.24,0a3,3,0,0,0,1.54-1.54,2.6,2.6,0,0,0,0-1.54c-.55-2,1.19-7.17,3.08-10.77a28.51,28.51,0,0,1,7.69-9.23c2.36-1.85,5.15-4,9.23-4.62,3.45-.49,6.06.41,6.16,0s-4.38-2.1-7.69-3.08c-2.95-.87-4.86-1.23-6.16-1.54-4.73-1.1-8-2.89-13.85-6.15-7.81-4.35-7.35-5.08-12.31-7.7-2.41-1.26-4-1.89-18.47-6.15-17.69-5.23-17.61-5-20-6.16-4.53-2.22-9.83-3.09-13.85-6.15-.62-.48-2.88-2.26-4.62-1.54-.69.28-.94.82-1.53,1.54s-1.52,1.52-4.62,3.07a125.66,125.66,0,0,1-13.85,6.16c-8.83,3-17.43,4.61-21.55,4.62h-9.23a24.72,24.72,0,0,1-9.24-1.54c-2.13-.9-4.8-2-6.15-4.62C1134.63,388.79,1136.76,386.16,1134.85,384.47Z"/><path d="M1084.06,413.71a31,31,0,0,0,3.08,15.39,16.34,16.34,0,0,1-3.08-15.39Z"/><path d="M1094.84,409.09a66.94,66.94,0,0,1-3.4,7.92,65.33,65.33,0,0,1-4.3,7.47,73.83,73.83,0,0,1,7.7-15.39Z"/><path d="M1113.3,409.09a47.66,47.66,0,0,0-11.51,3.91,47.06,47.06,0,0,0-10,6.86,26.24,26.24,0,0,1,4.35-4.4,29.32,29.32,0,0,1,5.24-3.35,29.63,29.63,0,0,1,5.83-2.17A26.47,26.47,0,0,1,1113.3,409.09Z"/><path d="M1094.84,419.86a24.06,24.06,0,0,0-4.08,3.2,7.46,7.46,0,0,0-1.42,2,6.83,6.83,0,0,0-.66,2.48,4.31,4.31,0,0,1-.08-2.75,6,6,0,0,1,1.43-2.43,8.49,8.49,0,0,1,2.23-1.65A8.11,8.11,0,0,1,1094.84,419.86Z"/><path d="M1081,427.56a5.5,5.5,0,0,1,3.27,1.56,5.89,5.89,0,0,1,1.56,3.36,18.3,18.3,0,0,1,0,3.7,17.36,17.36,0,0,1-.85,3.62,34.66,34.66,0,0,0-1.6,7c-.26,2.37-.38,4.83-.43,7.23a25.11,25.11,0,0,0,.12,3.58,6.28,6.28,0,0,0,1,3.17c.29.36.88.58,1.42,1.08a1.77,1.77,0,0,1,.56,1,1.67,1.67,0,0,1-.3,1.16,11.35,11.35,0,0,0-1,1.44,3,3,0,0,0-.37,1.54c0,.25.1.53.16.86a2.38,2.38,0,0,1,0,1.06,2.81,2.81,0,0,1-1.19,1.62,7.69,7.69,0,0,0-2.57,2.4,8.59,8.59,0,0,0-1.34,3.28,9.29,9.29,0,0,0,.08,3.6,8.81,8.81,0,0,1,.85-7.14,7.9,7.9,0,0,1,1.15-1.49,11.34,11.34,0,0,1,1.46-1.17,2.06,2.06,0,0,0,.88-1.27,1.59,1.59,0,0,0,0-.75,7.4,7.4,0,0,1-.2-.93,3.62,3.62,0,0,1,.38-2,10.8,10.8,0,0,1,1-1.54.76.76,0,0,0-.14-1.09,14,14,0,0,1-1.49-1.12,7,7,0,0,1-1.25-3.66A27.18,27.18,0,0,1,1082,454c.09-2.46.23-4.87.53-7.33a31.84,31.84,0,0,1,1.77-7.15,15.72,15.72,0,0,0,1-3.44,17.07,17.07,0,0,0,.12-3.57,5.52,5.52,0,0,0-1.26-3.24A5.64,5.64,0,0,0,1081,427.56Z"/><path d="M1084.06,473.73a30.23,30.23,0,0,1,5.72-2.85,35.44,35.44,0,0,1,12.55-2.34c1.07,0,2.13,0,3.2.12a30.42,30.42,0,0,1,3.16.45c-1.07,0-2.12,0-3.18,0s-2.1.07-3.15.15a59.32,59.32,0,0,0-6.23.82,58.26,58.26,0,0,0-6.1,1.48C1088,472.21,1086,472.94,1084.06,473.73Z"/><path d="M1085.6,487.58c4.56-.83,9.1-1.71,13.61-2.73s9-2.07,13.48-3.26,8.91-2.45,13.31-3.85,8.77-2.91,13.14-4.43a241.45,241.45,0,0,1,26.76-7.51q6.8-1.47,13.66-2.59c4.58-.7,9.17-1.33,13.77-1.8-9.16,1.36-18.26,3-27.26,5.14a259.06,259.06,0,0,0-26.6,7.71c-8.75,3-17.59,5.88-26.59,8.07A255.86,255.86,0,0,1,1085.6,487.58Z"/><path d="M1214.88,458.34a80.46,80.46,0,0,1-7.33,5.67,84.46,84.46,0,0,1-8,4.75,82.85,82.85,0,0,1-17.42,6.43c-6,1.48-12,2.9-18.12,3.95a184.14,184.14,0,0,1-18.4,2.28c3.06-.43,6.12-.86,9.16-1.39s6.07-1,9.09-1.64c6-1.21,12.05-2.62,18-4.16,3-.75,5.93-1.61,8.83-2.61a84,84,0,0,0,8.49-3.55A91.59,91.59,0,0,0,1214.88,458.34Z"/><path d="M1114.84,422.94c8.15-2.76,16.33-5.42,24.51-8.06l24.59-7.81,24.66-7.58,12.35-3.72,12.39-3.61-12.24,4.08-12.27,4L1164.24,408l-24.66,7.58C1131.35,418.1,1123.11,420.57,1114.84,422.94Z"/><path d="M1094.84,406a41.26,41.26,0,0,1,4.24-2.17,47.21,47.21,0,0,1,4.48-1.67,44.12,44.12,0,0,1,19-1.55c1.58.22,3.15.52,4.69.89a44.42,44.42,0,0,1,4.55,1.42c-1.54-.35-3.09-.7-4.65-.94s-3.11-.49-4.68-.61a55.68,55.68,0,0,0-9.4,0,54.07,54.07,0,0,0-9.27,1.56A62.51,62.51,0,0,0,1094.84,406Z"/><path class="cls-10" d="M1302.6,422.94c1.73.57,5.11,1.81,12.31,6.16s10.69,6.49,12.31,9.23a26.67,26.67,0,0,1,3.08,10.77,29.24,29.24,0,0,1,0,4.62,41.11,41.11,0,0,0-4.62,0,45.93,45.93,0,0,0-16.93,4.62,49.87,49.87,0,0,0-7.69,4.61,9.72,9.72,0,0,1,1.54,3.08c1.16,4.09-.87,8-1.54,9.23-2.08,4-4.53,4.82-4.62,7.7v6.16c0,3-1,6.05-1.54,9.23-1.1,6.47.51,8.19-1.54,12.31-1.38,2.78-2.74,3-3.07,3.08-1.59.25-3.37-1-4.62-3.08q.76-5.39,1.54-10.77a35,35,0,0,0,1.54-13.85c-.25-2.57-.91-6.17-1.54-6.16s-.71,2.23-1.54,7.7-1.27,8.34-1.54,10.77c-1,8.92-1.49,13.39-1.54,16.93,0,4,.16,6.3-1.54,7.69s-5.17,1.44-6.15,0c-.71-1-.17-2.58,0-3.07,1-2.87,1.72-9.13,1.21-23.4a95.44,95.44,0,0,0,1.86-12c.4-4.39.11-4.6,0-4.62-.57-.13-2.13,4.13-3.07,7.7-.57,2.13-.66,3.08-1.54,9.23-1.19,8.3-1.42,9.4-1.54,12.31s0,5.32,0,6.16c.29,7.37,1.4,9.23,0,10.77-1.59,1.75-5.52,2.1-7.7,0a6,6,0,0,1-1.54-4.62,35.19,35.19,0,0,1,0-7.69c.38-3.35,1.06-4.92,1.54-7.7,1.29-7.38.57-9.58,0-10.77-.66-1.39-2-3.29-3.07-3.08-.9.19-1.25,1.8-1.54,3.08-1.82,7.87-2.4,6-3.08,10.77-.41,2.82-.54,5.77-1.54,10.78a5,5,0,0,1-1.54,3.08,5.14,5.14,0,0,1-6.15,0c-1.62-1.34-1.59-3.57-1.54-6.16,0-1.79.31-2.85,1.54-7.7.92-3.67,1.39-5.51,1.53-6.15,1.18-5.2.78-5.93,1.54-9.24,1-4.22,2.6-7.12,4.62-10.77,1.36-2.46,1.68-2.64,6.16-9.23,4.77-7,7.16-10.57,7.69-12.31.88-2.89,1.06-5.56,3.08-9.24a25.41,25.41,0,0,0,1.54-3.08,23.41,23.41,0,0,0,1.54-6.15c1-7,8.46-13.23,9.23-13.85,2.18-1.77,5-4.06,9.23-4.62C1296.58,421,1299,421.76,1302.6,422.94Z"/><path d="M1264.12,475.26a10,10,0,0,1-1.5,5.09,8.75,8.75,0,0,1-1.76,2.07c-.68.6-1.4,1.1-2,1.69a7.74,7.74,0,0,0-2.27,4.41,20.58,20.58,0,0,0-.15,5.21,17.49,17.49,0,0,1-.45-2.62,14.14,14.14,0,0,1,0-2.68,7.68,7.68,0,0,1,2.33-4.87c.67-.62,1.4-1.12,2.06-1.67a9.84,9.84,0,0,0,1.74-1.85A12.05,12.05,0,0,0,1264.12,475.26Z"/><path class="cls-11" d="M1265.66,521.43c.52-.74,2.15-.43,3.08,0,.29.14,1.56.73,1.54,1.54s-1.7,2-3.08,1.54S1265.12,522.21,1265.66,521.43Z"/><circle class="cls-11" cx="1250.27" cy="516.82" r="2.18"/><circle class="cls-11" cx="1277.97" cy="519.9" r="2.18"/><path class="cls-11" d="M1288.75,507.58c.7,0,1.31.89,1.54,1.54a1.85,1.85,0,0,1,0,1.54,2.14,2.14,0,0,1-3.08,0C1286.54,509.67,1287.69,507.59,1288.75,507.58Z"/><path class="cls-8" d="M1045.59,470.65c-3.11.81-5,3.82-6.16,6.15a58.3,58.3,0,0,0-10.77-12.31,57.23,57.23,0,0,0-6.16-4.61L1004,458.34a4.17,4.17,0,0,0-3.08,1.54c-1.12,1.61-.65,4.36,1.54,6.15l9.23,10.77a8.39,8.39,0,0,0-3.08,3.08c-.13.25-2.59,4.79,0,7.7a6.23,6.23,0,0,0,6.16,1.54,10.24,10.24,0,0,0-1.54,6.15,13.72,13.72,0,0,0,1.54,4.62c1.72,3.78,2.7,3.92,3.08,6.15s-.53,2.54,0,4.62a9.31,9.31,0,0,0,3.08,4.62c2,1.75,3.23,1.31,4.61,3.08,1.2,1.52.59,2.19,1.54,3.07,1.57,1.46,3.69.13,9.24,0,3.71-.08,4,.5,6.15,0,1.65-.36,2.15-.82,6.16-3.07,6-3.39,6.49-3.25,7.69-4.62.86-1,1.61-2.72,3.08-6.16,2.18-5.11,1.89-5.44,3.08-7.69a28,28,0,0,1,6.15-7.7,34.43,34.43,0,0,1,9.24-6.15c-.67-.32-1.44-.82-1.54-1.54-.18-1.24,1.72-2.07,1.54-3.08s-2.73-1.48-3.08-1.54a113.61,113.61,0,0,1-16.93-4.62C1050.42,472.75,1049.18,469.72,1045.59,470.65Z"/><path d="M1021,478.34a5.18,5.18,0,0,1,3,0,5.46,5.46,0,0,1,2.55,1.66,2.69,2.69,0,0,1,.35,2.91,5.83,5.83,0,0,1-2.05,2.27,11,11,0,0,1-2.87,1.12c-1,.29-2,.55-3,.77l-1.5.33-.75.16-.31.09c0-.05,0-.09,0-.09l.08,0,.17,0a18,18,0,0,0,3,.16,50.35,50.35,0,0,0,12.06-1.88c1-.28,2-.6,2.91-.93a15.71,15.71,0,0,1,3-.82,5,5,0,0,1,4.94,3.25,4.34,4.34,0,0,1-.22,3.11,4.76,4.76,0,0,1-2.08,2.35,20.07,20.07,0,0,1-3,.84l-3,.72c-1,.25-2,.49-3,.76s-2,.46-3,.69a5.46,5.46,0,0,0-2.7,1.13,4.5,4.5,0,0,0-1.55,2.4c-.08.46.29.64.79.64a6.23,6.23,0,0,0,1.46-.19l3-.71c2-.49,4-1,5.9-1.6,1-.31,1.91-.67,2.86-1.06s1.92-.73,2.89-1.07c1.93-.68,3.89-1.3,5.86-1.85a12.2,12.2,0,0,1,1.53-.36,2.84,2.84,0,0,1,1.64.19,2.39,2.39,0,0,1,1.12,1.23,4.52,4.52,0,0,1,.38,1.56,5.87,5.87,0,0,1-.65,3.1,4.21,4.21,0,0,1-1,1.25,4.56,4.56,0,0,1-1.43.75c-1,.32-2,.56-2.91.94s-1.88.77-2.81,1.18-1.88.82-2.85,1.18l-2.88,1.06c-1.9.72-3.8,1.48-5.67,2.3-.47.2-.93.41-1.39.63-.23.11-.45.23-.67.35l-.32.18-.13.1s0,.07,0-.1,0-.1-.07-.1h0a6.59,6.59,0,0,0,1.45-.06c.5-.06,1-.14,1.51-.23a41.57,41.57,0,0,0,5.9-1.53c1-.33,1.92-.69,2.85-1.1s1.85-.86,2.82-1.22a7,7,0,0,1,6,.28,7,7,0,0,0,2.87.83,9.75,9.75,0,0,0,3-.19,5.37,5.37,0,0,0,2.6-1.39,3.12,3.12,0,0,0,.71-1.27,11.27,11.27,0,0,1,.44-1.5.69.69,0,0,1,.83-.27,1.83,1.83,0,0,1,.67.48,2.4,2.4,0,0,1,.66,1.45,4,4,0,0,1-1.29,2.8,10.14,10.14,0,0,1-2.41,1.92,9.93,9.93,0,0,1-2.92,1c-2,.37-4,.67-6,1a30.92,30.92,0,0,0-6,1.39,11.07,11.07,0,0,0-4.63,3.89,11.17,11.17,0,0,1,4.61-3.95,31.23,31.23,0,0,1,6-1.45c2-.36,4-.69,6-1.07a9.68,9.68,0,0,0,2.85-1,10,10,0,0,0,2.34-1.91,3.71,3.71,0,0,0,1.21-2.61,2.17,2.17,0,0,0-.59-1.29c-.29-.35-.87-.63-1.08-.25a14,14,0,0,0-.41,1.44,3.43,3.43,0,0,1-.77,1.38,5.6,5.6,0,0,1-2.73,1.48,10.12,10.12,0,0,1-3.1.21,7.42,7.42,0,0,1-3-.86,6.61,6.61,0,0,0-5.79-.24c-1,.36-1.86.82-2.8,1.23s-1.91.78-2.88,1.11a40.71,40.71,0,0,1-6,1.57c-.5.09-1,.17-1.52.23a6.53,6.53,0,0,1-1.61.06l-.08,0a.28.28,0,0,1-.13-.17c0-.24.08-.19.11-.25a1.1,1.1,0,0,1,.18-.14,3,3,0,0,1,.34-.2l.69-.36c.47-.22.93-.44,1.4-.64,1.88-.83,3.77-1.6,5.69-2.33l2.87-1.07c1-.36,1.88-.77,2.82-1.18s1.87-.83,2.83-1.2,2-.65,2.92-1a4,4,0,0,0,1.28-.67,3.73,3.73,0,0,0,.9-1.11,5.49,5.49,0,0,0,.58-2.84,2.81,2.81,0,0,0-1.23-2.39,4.35,4.35,0,0,0-2.82.21c-2,.55-3.92,1.15-5.84,1.82-1,.34-1.93.69-2.87,1.05s-1.92.75-2.9,1.06c-2,.63-4,1.11-5.94,1.6l-3,.7a6.75,6.75,0,0,1-1.57.19,1.43,1.43,0,0,1-.84-.23.93.93,0,0,1-.35-.87,3.47,3.47,0,0,1,.65-1.49,6.53,6.53,0,0,1,1-1.18,5.82,5.82,0,0,1,2.89-1.2c1-.23,2-.38,3-.68s2-.51,3-.75l3-.71a21.28,21.28,0,0,0,2.92-.81,4.49,4.49,0,0,0,1.91-2.16,4.1,4.1,0,0,0,.22-2.88,4.73,4.73,0,0,0-4.6-3,14.74,14.74,0,0,0-2.92.8c-1,.32-2,.64-2.93.91a49.89,49.89,0,0,1-12.13,1.85,17.82,17.82,0,0,1-3.09-.19l-.19-.06-.11,0c-.06,0-.14-.13-.05-.23a1.07,1.07,0,0,1,.42-.15l.75-.16,1.5-.31c1-.21,2-.46,3-.73a11.58,11.58,0,0,0,2.84-1.08,5.82,5.82,0,0,0,2-2.2,2.66,2.66,0,0,0-.31-2.85,5.52,5.52,0,0,0-2.52-1.66A5.15,5.15,0,0,0,1021,478.34Z"/><path d="M1007.12,464.49c.89.35,1.29,1.3,1.91,2a16.34,16.34,0,0,0,2,1.91c.36.29.72.57,1.09.84a11.83,11.83,0,0,1,1.13.87.89.89,0,0,1,.22.83,1.48,1.48,0,0,1-.42.68,4.74,4.74,0,0,1-1.2.82l-.15.09-.13-.13c-.71-.7-1.41-1.41-2.09-2.16s-1.29-1.52-2-2.19c-.36-.33-.76-.62-1.15-.95a2.41,2.41,0,0,1-.85-1.25c-.13-.45-.25-1.08.21-1.41A1.74,1.74,0,0,1,1007.12,464.49Zm0,0a1.73,1.73,0,0,0-1.44-.06c-.42.31-.3.92-.15,1.36.3,1,1.33,1.37,2.09,2a24,24,0,0,1,2.17,2.1c.67.71,1.42,1.39,2.11,2.1l-.28,0a4.42,4.42,0,0,0,1.1-.71c.31-.28.46-.66.21-.92a10.29,10.29,0,0,0-1-.88c-.36-.3-.7-.61-1-.93a18.27,18.27,0,0,1-1.89-2C1008.37,465.81,1008,464.87,1007.12,464.49Z"/><path d="M1031.74,472.19a34.49,34.49,0,0,1,3.25,2.9,33.14,33.14,0,0,1,2.9,3.25,33.14,33.14,0,0,1-3.25-2.9A34.49,34.49,0,0,1,1031.74,472.19Z"/><path d="M1028.66,469.11a2.43,2.43,0,0,1,.95.59,2.29,2.29,0,0,1,.59.95,2.36,2.36,0,0,1-1-.59A2.43,2.43,0,0,1,1028.66,469.11Z"/><path d="M1044.05,481.42c1,.25,1.91.51,2.86.79s1.9.55,2.83.9a9.46,9.46,0,0,1,1.39.61,4.34,4.34,0,0,1,1.18,1,5.1,5.1,0,0,1,1.19,2.81h0a5.35,5.35,0,0,1-.28,1.24c-.13.39-.28.78-.43,1.16-.31.75-.66,1.49-1,2.21.27-.77.54-1.53.79-2.3.12-.39.24-.78.34-1.17a5.32,5.32,0,0,0,.19-1.14h0a4.58,4.58,0,0,0-1.14-2.53,4.12,4.12,0,0,0-1-.92,8.74,8.74,0,0,0-1.31-.61C1047.74,482.84,1045.88,482.18,1044.05,481.42Z"/><path class="cls-12" d="M1044.05,484.5a3.44,3.44,0,0,1,1.54-1.54c1.9-.87,4.55.45,4.62,1.54,0,.68-.92,1.3-1.54,1.54C1047.25,486.59,1045.44,486,1044.05,484.5Z"/><path d="M1022.5,479.88a2.57,2.57,0,0,0-1.29,1.1,2.3,2.3,0,0,0-.21,1.64,2.77,2.77,0,0,0,2.44,1.8c.24,0,.49-.09.47-.15s0-.53,0-.81a8.73,8.73,0,0,1,.1-1.77c0-.29.1-.58.15-.86a1.21,1.21,0,0,0,0-.82.79.79,0,0,0-.75-.31A3.58,3.58,0,0,0,1022.5,479.88Zm0,0a3.6,3.6,0,0,1,.85-.19.83.83,0,0,1,.81.28,1.48,1.48,0,0,1,.11.88c0,.29,0,.58-.06.86a8.84,8.84,0,0,0,.08,1.71,4.8,4.8,0,0,1,.09.93.61.61,0,0,1-.43.48,1.48,1.48,0,0,1-.53.09,3.09,3.09,0,0,1-1.72-.69,2.62,2.62,0,0,1-1-1.56A2.66,2.66,0,0,1,1022.5,479.88Z"/><path d="M1037.89,486a3.53,3.53,0,0,0-1.71,3.22,3.09,3.09,0,0,0,2.15,2.72,1.41,1.41,0,0,0,.82.09.63.63,0,0,0,.4-.56,5.79,5.79,0,0,0-.18-1.87A9.78,9.78,0,0,0,1037.89,486Zm0,0a8,8,0,0,1,1.85,3.51,5.23,5.23,0,0,1,.26,2,1.07,1.07,0,0,1-.71.94,1.84,1.84,0,0,1-1.12-.06,3.87,3.87,0,0,1-1.69-1.23,3.06,3.06,0,0,1-.68-2,4,4,0,0,1,.56-2A3.43,3.43,0,0,1,1037.89,486Z"/><path d="M1044.05,496.81a2.33,2.33,0,0,0,.17,1.83,2.55,2.55,0,0,0,1.44,1.08,2.2,2.2,0,0,0,2.77-1.45,2.38,2.38,0,0,0-1.35-2.88,2.34,2.34,0,0,0-1.8.05A2.44,2.44,0,0,0,1044.05,496.81Zm0,0a2.57,2.57,0,0,1,3.1-1.66,2.48,2.48,0,0,1,1.55,1.25,2.79,2.79,0,0,1,.21,2,2.59,2.59,0,0,1-1.35,1.53,2.52,2.52,0,0,1-2,0,2.76,2.76,0,0,1-1.42-1.29A2.32,2.32,0,0,1,1044.05,496.81Z"/><path class="cls-5" d="M1005.58,464.49H1021c4.46,4,9.13,8.64,13.85,13.85a199,199,0,0,1,16.93,21.55l4.61,4.62q-3,.06-6.15,0a149,149,0,0,1-18.47-1.54l-29.24-38.48Z"/><path class="cls-13" d="M1016.35,501.43c-2-3.82-3.15-3.86-9.23-10.78-.91-1-.48-.57-9.24-10.77-2.79-3.25-4.19-4.87-4.62-4.62-.6.37,1.62,3.85,3.08,9.24.8,2.95,2.74,10.46,0,18.47a25.66,25.66,0,0,1-3.08,6.15,96.42,96.42,0,0,1,4.62,9.24c2.63,6,2.5,7.45,4.62,9.23,2.43,2,4.24,1.57,7.69,4.62,1.76,1.55,1.53,1.89,3.08,3.07a17.16,17.16,0,0,0,7.7,3.08,24.66,24.66,0,0,0,9.23,0,21.3,21.3,0,0,1,3.08-7.69c3.86-5.87,9.7-8,9.23-9.24-.16-.43-1.11-.19-6.15,0a26.11,26.11,0,0,1-4.62,0c-.93-.17-1.64-.44-6.16-3.07-3.94-2.3-4.26-2.6-4.61-3.08-1.32-1.79-1-3.3-1.54-6.16S1017.94,504.49,1016.35,501.43Z"/><path d="M1014.81,506a22.74,22.74,0,0,1,3.53,6.31,24.52,24.52,0,0,1,1.5,7.13,36.59,36.59,0,0,1-.21,7.25c-.17,1.2-.39,2.39-.67,3.57a35.24,35.24,0,0,1-1.07,3.45c.22-1.19.45-2.36.59-3.55s.31-2.36.38-3.54a52.71,52.71,0,0,0,0-7.11,30.88,30.88,0,0,0-1.22-6.95,26.75,26.75,0,0,0-1.23-3.34A34.23,34.23,0,0,0,1014.81,506Z"/><path d="M1002.5,490.65a96.6,96.6,0,0,1,3.48,9.88c.5,1.67,1,3.35,1.4,5s.91,3.37,1.27,5.09c-.73-1.59-1.42-3.2-2-4.85s-1.1-3.31-1.61-5A95.79,95.79,0,0,1,1002.5,490.65Z"/><path class="cls-13" d="M1147.16,590.69c.49-1.73-1.21-3.72-4.62-7.7-2.41-2.81-4-4.09-9.23-9.23-1.31-1.29-2.38-2.37-3.08-3.08q3.09-9.23,6.16-18.47c-1.77-.61-4.48-1.61-7.7-3.07a130,130,0,0,1-13.85-7.7c-9.07-5.41-8.29-4.18-13.85-7.69-10.1-6.39-11.24-9.53-21.54-15.39a57,57,0,0,0-10.78-4.62c-3.64-1.15-6.16-1.91-9.23-1.54-4.26.52-7.11,2.92-9.23,4.62-10.39,8.3-18.18,7.95-18.47,12.31-.1,1.44.58,2.48,0,4.62a9.54,9.54,0,0,1-3.08,4.61,9.31,9.31,0,0,1-4.62,1.54c-3.42.14-5.88-1.94-6.15-1.54-.06.09-.18.52,4.61,4.62,3,2.56,4.54,3.86,6.16,4.62,2.54,1.18,2.83.47,6.16,1.54,2.13.68,6.66,2.13,9.23,6.15a7.7,7.7,0,0,1,0,9.24,91.94,91.94,0,0,1-7.69,10.77c-4.13,4.6-8,9.42-12.32,13.85-2.57,2.65-5.2,5.23-4.61,6.15.36.57,1.72.2,3.07,0,4-.58,6.3.53,10.78,1.54,2.92.66,1.74.14,15.39,1.54,5.95.61,11.1,1.22,13.85,1.54,10.44,1.23,11,1.46,13.85,1.54,7.17.21,7.27-1.11,15.39-1.54,12.55-.66,16.32,2.27,26.16,0,1-.24,1.35-.35,6.16-1.54,6.56-1.62,8.75-2.09,12.31-3.08C1146.4,592.53,1147,591.3,1147.16,590.69Z"/><path d="M1068.67,518.36c-2.15,2.22-4.4,4.34-6.64,6.47s-4.55,4.17-6.88,6.2l-.12.11h-.15c-2.31.25-4.63.46-6.94.63s-4.64.34-7,.43c2.29-.43,4.59-.79,6.89-1.12s4.6-.64,6.91-.91l-.27.12c2.29-2.07,4.62-4.09,7-6.1S1066.21,520.23,1068.67,518.36Z"/><path d="M1050.21,536.82c4.92,1.22,9.83,2.45,14.69,3.86,2.45.67,4.87,1.41,7.3,2.12s4.87,1.41,7.28,2.19,4.81,1.57,7.21,2.43a43.92,43.92,0,0,1,7,3,51.18,51.18,0,0,1,6.34,4.25,48.89,48.89,0,0,1,5.56,5.2,56.19,56.19,0,0,0-12.27-8.77,51.5,51.5,0,0,0-6.95-2.86c-2.39-.82-4.8-1.58-7.22-2.34-4.8-1.6-9.67-3-14.48-4.53-2.41-.78-4.83-1.53-7.25-2.27S1052.61,537.63,1050.21,536.82Z"/><path d="M1107.15,555.29c1.17.9,2.31,1.85,3.4,2.86a33.3,33.3,0,0,1,3,3.32,30.25,30.25,0,0,1,4.42,7.67c-1.75-2.39-3.41-4.77-5.21-7.06-.88-1.15-1.81-2.28-2.73-3.41S1108.06,556.47,1107.15,555.29Z"/><path d="M1130.23,573.76a115.87,115.87,0,0,1-7.69,20,99.67,99.67,0,0,1,3.38-10.19A101.82,101.82,0,0,1,1130.23,573.76Z"/><path d="M1131.77,555.29c-.87,3-1.85,6-2.84,8.94s-2,5.89-3.07,8.84-2,5.92-3.07,8.85l-1.62,4.4c-.57,1.45-1.11,2.92-1.71,4.37.39-1.52.83-3,1.25-4.52l1.35-4.49c.9-3,1.88-6,2.85-8.93s2.15-5.87,3.3-8.78S1130.51,558.15,1131.77,555.29Z"/><path d="M1094.84,555.29c1.11,3.18,2.26,6.33,3.56,9.42s2.75,6.1,4.08,9.22a50,50,0,0,1,2.94,9.72,31,31,0,0,1,.19,10.12,40.07,40.07,0,0,0-.17-5,34.16,34.16,0,0,0-.77-4.93,64.71,64.71,0,0,0-3.11-9.5c-1.28-3.07-2.75-6.13-3.87-9.32A74.8,74.8,0,0,1,1094.84,555.29Z"/><path d="M1061,516.82a39,39,0,0,1-4.26,5,38.24,38.24,0,0,1-5,4.26,36.86,36.86,0,0,1,4.26-5A37.59,37.59,0,0,1,1061,516.82Z"/><path class="cls-8" d="M990.19,472.19c-3.42-5.76-4.26-6.14-9.24-13.85-4.66-7.22-4.31-7.48-7.69-12.32-4.5-6.42-6.82-9.68-10.78-12.31-2.79-1.85-6.94-4.6-12.31-4.61-2.35,0-4.13.52-7.69,0s-3.69-1.27-6.16-1.54c-5.58-.63-10.13,2.6-10.77,3.07-.92.68-4.06,3.14-6.16,9.24-2.95,8.58-1.2,16.63,0,21.54,3.32,13.53,6.8,22.66,13.85,38.48,2.71,6.07,4.93,10.61,9.24,15.39,1.83,2,4.81,4.43,10.77,9.23,9.36,7.54,10.87,7.89,12.31,7.7,4.05-.55,4.32-5,10.78-7.7A21.54,21.54,0,0,1,984,523a33.8,33.8,0,0,1,18.47,4.62,43.85,43.85,0,0,0-3.08-6.16c-1.36-2.25-1.76-2.45-3.08-4.61-1.9-3.12-4.46-7.32-3.08-9.24.72-1,1.83-.45,3.08-1.54,1.72-1.49,1.63-4.21,1.54-6.15-.39-8.22-.58-12.33-1.54-15.39C995.06,480.39,993.43,477.66,990.19,472.19Z"/><path d="M957.87,441.41a68.22,68.22,0,0,0,4.71,8.22c1.69,2.65,3.91,4.95,5.42,7.84a20.16,20.16,0,0,1,1.74,4.5,10.13,10.13,0,0,0,2,4.08,16,16,0,0,0,3.42,3.08c.64.49,1.27.9,1.92,1.5a18.32,18.32,0,0,1,1.59,1.87c1.88,2.59,3.55,5.27,5.28,7.93s3.46,5.31,5,8.13a16.54,16.54,0,0,1,1.79,4.5,4.18,4.18,0,0,1-.29,2.49c-.33.79-.94,1.37-1.24,2a5.83,5.83,0,0,0,.1,4.47,14.83,14.83,0,0,0,2.49,4,14.18,14.18,0,0,1-2.74-3.89,6.16,6.16,0,0,1-.29-4.77c.34-.79.91-1.35,1.16-2.05a3.55,3.55,0,0,0,.19-2.16,16.17,16.17,0,0,0-1.85-4.24c-1.57-2.71-3.29-5.37-5-8s-3.46-5.3-5.32-7.82a17.26,17.26,0,0,0-1.47-1.77c-.51-.48-1.19-1-1.81-1.43a17.35,17.35,0,0,1-3.57-3.29,11.61,11.61,0,0,1-1.29-2.1,10.71,10.71,0,0,1-.8-2.33,21.94,21.94,0,0,0-1.58-4.37c-1.35-2.8-3.52-5.18-5.15-7.92A60.81,60.81,0,0,1,957.87,441.41Z"/><path d="M948.63,521.43a34.53,34.53,0,0,1,4.62,10.78,34.53,34.53,0,0,1-4.62-10.78Z"/><path class="cls-14" d="M947.1,536.82c-1.54.91-7,4.14-7.7,9.24-.21,1.54.22,1.84,1.54,7.69.94,4.17,1.08,5.6,1.54,7.7a46,46,0,0,0,6.15,15.39c1.92,2.92,6,9.14,13.85,12.31a29.06,29.06,0,0,0,15.39,1.54c8.62-1.4,10.75-5.72,16.93-4.62,3.88.69,3.49,2.47,9.24,4.62,2.24.83,8.75,3.27,15.39,1.54,3.77-1,6.62-3.74,12.31-9.24,0,0,11.38-11,13.85-21.54a6.09,6.09,0,0,0,0-3.08c-.74-2.57-3.29-3.93-4.62-4.62-6.14-3.16-11.93-6-12.31-6.15-5.11-2.49-3.86-3.83-12.31-10.78a66.88,66.88,0,0,0-16.93-10.77c-5.39-2.29-9.08-3.81-13.85-3.08a20.38,20.38,0,0,0-10.77,4.62c-2.12,1.9-3.27,3.94-6.16,4.62-1.61.38-2.07-.06-4.62,0-1.23,0-2.92.17-7.69,1.54C951.15,535.22,948.56,536,947.1,536.82Z"/><path d="M950.17,538.36a31.86,31.86,0,0,0,9.34-1c1.52-.36,3-1,4.58-1.24a24.09,24.09,0,0,1,4.79-.29c3.17.08,6.31.44,9.45.69a72.67,72.67,0,0,1,9.44,1.25,15.11,15.11,0,0,1,4.49,1.87,24.43,24.43,0,0,1,3.75,3,11.49,11.49,0,0,0,3.75,2.56,13.8,13.8,0,0,0,4.48.85,27,27,0,0,0,4.64-.38,38.86,38.86,0,0,0,4.59-1,12.16,12.16,0,0,1,4.73-.54,8.91,8.91,0,0,1,4.3,1.92,9.07,9.07,0,0,0-4.33-1.65,11.58,11.58,0,0,0-4.57.74,37.64,37.64,0,0,1-4.62,1.17,26.67,26.67,0,0,1-4.75.52,13.06,13.06,0,0,1-4.78-.81,12.34,12.34,0,0,1-4.05-2.68,23.15,23.15,0,0,0-3.65-2.87,14,14,0,0,0-4.22-1.71,70.91,70.91,0,0,0-9.29-1.31c-3.13-.3-6.27-.64-9.39-.83a23.25,23.25,0,0,0-4.65.14c-1.52.21-3,.78-4.58,1.09A30,30,0,0,1,950.17,538.36Z"/><path class="cls-5" d="M976.34,530.67c1.43-1.2.48-5.22-1.54-7.7-2.69-3.29-7.91-4.63-9.24-3.07s.8,5.4,3.08,7.69S974.81,531.94,976.34,530.67Z"/><path class="cls-5" d="M977.87,529.13c-.1-.41,1-.58,1.54-1.54,1.33-2.29-2.51-5.39-1.54-7.69.77-1.83,4.37-2.76,6.16-1.54,2.69,1.83,1.83,8.89-1.54,10.77C980.69,530.13,978,529.74,977.87,529.13Z"/><path d="M956.33,556.83a9.78,9.78,0,0,0-.39,5.86,19.54,19.54,0,0,0,1.86,5.65,19.89,19.89,0,0,0,8.4,8.2,16.35,16.35,0,0,0,5.65,1.74,12.65,12.65,0,0,0,2.95,0,11.17,11.17,0,0,0,2.83-.81,26.92,26.92,0,0,1,5.63-2.07,15.49,15.49,0,0,1,6-.06c2,.45,3.79,1.32,5.71,1.78a32,32,0,0,0,5.84.92c1,.07,2,.12,2.95.1s1.94-.16,3-.23a26.44,26.44,0,0,1,6,.42,30.49,30.49,0,0,1,5.83,1.61c1.88.68,3.7,1.52,5.56,1.31a10.17,10.17,0,0,0,5.16-2.26,9.46,9.46,0,0,0,3.29-4.51,4.41,4.41,0,0,0,0-2.64,5.21,5.21,0,0,0-1.53-2.23,6.55,6.55,0,0,0-5.1-1.79,28.78,28.78,0,0,0-5.56,1.8c-1.85.73-3.74,1.41-5.62,2.07s-3.76,1.33-5.71,1.85a17.83,17.83,0,0,1-3,.56,20.58,20.58,0,0,1-3,0,21.52,21.52,0,0,1-5.93-1.17,14,14,0,0,1-5.16-3.15,9.12,9.12,0,0,1-1.84-2.43,19.38,19.38,0,0,1-1-2.84,20.12,20.12,0,0,0-2.67-5.27c-2.18-3.27-5.05-6.28-8.78-7.74a21.37,21.37,0,0,0-11.72-1,17.31,17.31,0,0,0-5.57,2.05A9.8,9.8,0,0,0,956.33,556.83Zm0,0a9.82,9.82,0,0,1,4-4.27,17.39,17.39,0,0,1,5.57-2.09,21.66,21.66,0,0,1,11.8.89c3.77,1.45,6.73,4.43,9,7.7a20.79,20.79,0,0,1,2.79,5.32,20.16,20.16,0,0,0,1,2.76,8.76,8.76,0,0,0,1.79,2.28,13.38,13.38,0,0,0,5,3,20.54,20.54,0,0,0,5.77,1c4,.37,7.67-1.24,11.42-2.54,1.88-.68,3.74-1.36,5.59-2.1a28.27,28.27,0,0,1,5.77-1.89,6.43,6.43,0,0,1,3.16.37,8.64,8.64,0,0,1,2.7,1.62,6.37,6.37,0,0,1,1.82,2.64,5.42,5.42,0,0,1,0,3.24,10.47,10.47,0,0,1-3.66,5,11.05,11.05,0,0,1-5.66,2.43,8.17,8.17,0,0,1-3.12-.38c-1-.3-1.91-.68-2.84-1a30.38,30.38,0,0,0-5.66-1.6,26.89,26.89,0,0,0-5.85-.49c-1,.06-2,.19-3,.19s-2-.06-3-.15a32.43,32.43,0,0,1-5.93-1c-2-.5-3.78-1.41-5.67-1.86a15.1,15.1,0,0,0-5.84,0,26.77,26.77,0,0,0-5.59,2,11.72,11.72,0,0,1-2.91.79,13.16,13.16,0,0,1-3,0,17,17,0,0,1-5.69-1.83,19.9,19.9,0,0,1-8.4-8.3,19.41,19.41,0,0,1-1.83-5.67A9.74,9.74,0,0,1,956.33,556.83Z"/><path d="M961,541.44a42.43,42.43,0,0,1-2.32,7A47.9,47.9,0,0,1,955.2,555a47.18,47.18,0,0,1-4.39,5.94,43.27,43.27,0,0,1-5.25,5.15c.79-.93,1.61-1.84,2.37-2.79s1.55-1.88,2.28-2.85c1.47-1.94,2.86-3.92,4.15-6s2.45-4.18,3.57-6.33c.56-1.09,1.07-2.19,1.56-3.3S960.47,542.57,961,541.44Z"/><path d="M965.56,541.44a49.24,49.24,0,0,1,10.43-.75,48.15,48.15,0,0,1,5.23.47c1.73.25,3.46.49,5.18.82a23.07,23.07,0,0,1,5.09,1.52,17.2,17.2,0,0,1,4.45,2.94,38.87,38.87,0,0,1,6.54,8.28c.92,1.5,1.77,3,2.6,4.56.42.77.8,1.58,1.23,2.26a3.11,3.11,0,0,0,.76.85,4.54,4.54,0,0,0,1,.58,7.68,7.68,0,0,0,4.85-.07c1.64-.44,3.27-1,4.91-1.64,3.26-1.22,6.55-2.4,9.89-3.4s6.73-1.87,10.14-2.57a165.13,165.13,0,0,0-19.76,6.68,46.31,46.31,0,0,1-5,1.77,8.55,8.55,0,0,1-5.41.08,6.1,6.1,0,0,1-1.25-.69,4.18,4.18,0,0,1-1-1.08c-.5-.78-.87-1.55-1.29-2.31-.83-1.52-1.7-3-2.61-4.5a38.47,38.47,0,0,0-6.3-8.13,16,16,0,0,0-4.2-2.82,24.79,24.79,0,0,0-4.88-1.56c-1.69-.37-3.41-.65-5.12-.94a49.75,49.75,0,0,0-5.16-.62A53.3,53.3,0,0,0,965.56,541.44Z"/><path class="cls-8" d="M937.86,552.21c-3.26.73-4.11,5.86-6.15,12.32-4.61,14.52-8.53,14.36-10.78,26.16-1.11,5.84-.18,6-1.54,12.31a67,67,0,0,1-6.15,16.93c-3.45,6.83-7.65,19.13-10.78,43.09l30.78,24.62c1.06-1.34,2.7-3.47,4.62-6.15,4.95-6.92,5.5-8.79,9.24-13.85a105.33,105.33,0,0,1,9.23-10.78c4.71-4.93,5.89-5.41,9.23-9.23a51.88,51.88,0,0,0,7.7-10.77c4.66-9.25,4.63-19.73,4.61-26.17,0-6.76-.82-10.9,1.54-12.31,2-1.18,4,.91,9.24,1.54,4.47.54,4.76-.77,12.31-1.54,9-.91,11,.69,15.39-1.54,3.95-2,6.59-5.51,6.15-6.15s-2.46,1.11-6.15,1.54-6.49-.57-9.23-1.54c-5.8-2.05-5.43-3.69-9.24-4.62-2.85-.7-6,0-12.31,1.54-8.66,2.07-8.77,3.18-12.31,3.08-4.83-.13-8.4-2.28-12.31-4.62a38.19,38.19,0,0,1-10.78-9.23c-7.09-9-7.67-19.18-7.69-23.09C941.3,552.84,939.59,551.83,937.86,552.21Z"/></g></g><g id="Table"><g id="Book3"><polygon class="cls-15" points="568.1 755.4 553.66 750.08 563.26 597.15 572.85 597.15 568.1 755.4"/><path class="cls-16" d="M703.78,582.91c4.36-.31,18.67-1.3,38-3.16C760.13,578,775,576.19,784.49,575c18.2,13.66,45.09,33.83,63.3,47.47q87.76,65.78,175.66,131.35L566.11,820.29q-1.59-112.36-3.17-224.72C644.39,587.63,683.4,584.36,703.78,582.91Z"/><path class="cls-15" d="M566.11,820.29c4.59-.92,121.72-18,458.92-66.47V776h-3.17l1.59,251.61-17.41,6.33q-2.37-117.9-4.75-235.79L585.1,863q.78,106,1.58,212.06l-20.57,3.16V844h-7.92V821.87h0Z"/><path class="cls-16" d="M583.51,839.28l417.78-57V795L583.51,858.26Z"/><path class="cls-13" d="M619.12,639.09q.79,17.42,1.58,34.82l15.83,23.73,185.15-20.57V648.59a109,109,0,0,0-9.5-11.08c-4.52-4.62-5.25-4.56-7.91-7.91-2.86-3.62-6.3-8-7.91-14.25-.63-2.46-.52-3.41-1.58-4.74-.53-.66-2.79-3.22-11.08-3.17A39,39,0,0,0,772.62,609c-6.85,2.31-1.26-1.45-76,14.25-28.89,6.07-40.11,8.81-58.55,7.91a157.6,157.6,0,0,1-15.82-1.58c0,.36,0,.91,0,1.58.07,4,.68,5.18,0,6.33C621.92,638.12,621.11,638.83,619.12,639.09Z"/><path d="M624.66,646.21a64,64,0,0,1,3.88,5.1c1.22,1.76,2.34,3.58,3.41,5.43s2.06,3.75,2.94,5.69c.45,1,.88,2,1.3,2.94s.79,2,1.13,3c-1.07-1.86-2.07-3.73-3.11-5.59l-3.13-5.54-3.19-5.52C626.82,649.89,625.72,648.07,624.66,646.21Z"/><path d="M637.32,670c.39,4,.48,7.91.5,11.87s-.11,7.91-.5,11.87c-.4-4-.49-7.92-.5-11.87S636.93,673.91,637.32,670Z"/><polygon points="640.48 666.78 662.61 664.17 684.75 661.66 729.05 656.79 773.37 652.16 795.54 649.92 817.72 647.79 795.59 650.41 773.45 652.92 729.16 657.79 684.84 662.42 662.66 664.65 640.48 666.78"/><path d="M656.31,674.7a20.65,20.65,0,0,1,.5,4.74,20.14,20.14,0,0,1-.5,4.75,19.63,19.63,0,0,1-.5-4.75A20.11,20.11,0,0,1,656.31,674.7Z"/><path d="M664.22,671.53a45,45,0,0,1,.5,7.12,43.64,43.64,0,0,1-.5,7.12,50.94,50.94,0,0,1,0-14.24Z"/><path d="M692.71,663.62a106,106,0,0,1,0,20.57,106,106,0,0,1,0-20.57Z"/><path d="M700.62,670a20.68,20.68,0,0,1,.5,4.75,20.11,20.11,0,0,1-.5,4.74,19.6,19.6,0,0,1-.5-4.74A20.14,20.14,0,0,1,700.62,670Z"/><path d="M626.24,641.46a13.31,13.31,0,0,1,3.79-5.1,12.68,12.68,0,0,1,5.71-2.81,42.6,42.6,0,0,0-5.07,3.58A50.07,50.07,0,0,0,626.24,641.46Z"/><path d="M798.73,630.39a133.16,133.16,0,0,1-21.51.31,162.42,162.42,0,0,1-21.33-3,97.42,97.42,0,0,0-21.31-1.4,145.73,145.73,0,0,0-21.3,2.49c3.48-.85,7-1.54,10.55-2.12s7.13-.92,10.72-1.14a93.48,93.48,0,0,1,21.52,1.19c3.54.68,7,1.39,10.56,1.93s7.09,1,10.65,1.28,7.13.49,10.71.56S795.15,630.52,798.73,630.39Z"/><path d="M623.87,653.33c1.67,2.59,3.23,5.24,4.85,7.85s3.15,5.28,4.64,8c-1.67-2.58-3.23-5.24-4.85-7.85S625.36,656,623.87,653.33Z"/><path d="M622.29,658.08c1.67,2.31,3.23,4.7,4.85,7s3.15,4.76,4.64,7.19c-1.67-2.31-3.23-4.7-4.85-7.05S623.78,660.51,622.29,658.08Z"/><path d="M623.87,666c1.67,2,3.23,4.17,4.85,6.26s3.15,4.23,4.64,6.4c-1.67-2-3.23-4.17-4.84-6.25S625.36,668.17,623.87,666Z"/><path class="cls-17" d="M847.79,726.92c-.95-2.5-2.12-5.6-1.58-9.5.41-3,1.67-5.23,3.16-7.91a37.07,37.07,0,0,1,3.17-4.75L843,692.1a7.35,7.35,0,0,1-1.58,6.33,7.11,7.11,0,0,1-7.91,1.59L605.67,728.5l-17.41-31.65q.79-2.37,1.58-4.75-1.58-5.54-3.16-11.07l-25.32,4.74q10.29,42.74,20.57,85.46l270.61-36.4A26.24,26.24,0,0,1,847.79,726.92Z"/><path d="M574,698.43l8.17,42.68-.29-.21,65.26-8.84c21.75-2.94,43.5-5.95,65.27-8.76l65.29-8.56c21.76-2.89,43.54-5.64,65.32-8.39-21.74,3-43.48,6.09-65.23,9l-65.26,8.84c-21.75,3-43.52,5.79-65.29,8.66L582,741.42l-.25,0,0-.24Z"/><polygon points="589.05 748.28 713.26 732.33 837.5 716.63 713.29 732.58 589.05 748.28"/><polygon points="589.05 754.61 713.26 739.46 837.5 724.54 713.29 739.7 589.05 754.61"/><polygon points="592.22 759.36 714.05 744.2 835.92 729.29 714.09 744.45 592.22 759.36"/><path class="cls-4" d="M581.93,670c.13-1.93,8.43-3.83,38-4.75a48.65,48.65,0,0,0,1.58,11.08A51.31,51.31,0,0,0,635.74,700l188.31-22.16q-.78-5.54-1.58-11.08l19,14.25v19L605.67,728.5l-19-36.4c1.17.39,2.55.66,3.16,0s.13-1.19,0-3.16c-.16-2.7.41-3,0-4.75a5.86,5.86,0,0,0-1.58-3.16c-1.29-1.24-2.13-.59-3.16-1.59-1.39-1.34-.4-3-1.59-6.33C582.73,670.93,581.89,670.58,581.93,670Z"/><path d="M605.67,709.51a46.16,46.16,0,0,1,.5,7.12,44.79,44.79,0,0,1-.5,7.12,43.64,43.64,0,0,1-.5-7.12A46.16,46.16,0,0,1,605.67,709.51Z"/><polygon points="610.42 709.51 638.67 705.91 666.95 702.41 723.51 695.56 780.09 688.95 808.4 685.73 836.71 682.61 808.45 686.22 780.18 689.72 723.62 696.56 667.04 703.17 638.73 706.39 610.42 709.51"/><path d="M654.73,709.51a15.89,15.89,0,0,1,0,7.91,15.89,15.89,0,0,1,0-7.91Z"/><path d="M662.64,706.35a36.51,36.51,0,0,1,.5,6.33,35.55,35.55,0,0,1-.5,6.33,34.64,34.64,0,0,1-.5-6.33A35.55,35.55,0,0,1,662.64,706.35Z"/><path d="M592.22,694.48c1.94,3.38,3.76,6.82,5.65,10.22s3.67,6.87,5.43,10.35c-1.95-3.38-3.77-6.82-5.65-10.23S594,698,592.22,694.48Z"/><path d="M593.8,692.9c1.68,2.84,3.24,5.76,4.86,8.64s3.15,5.81,4.64,8.76c-1.68-2.85-3.24-5.76-4.86-8.64S595.29,695.85,593.8,692.9Z"/></g></g><g id="FromPhone"><path class="cls-18" d="M1023.5,441.22c.42-13.28-1.06-33.5-13.61-50.75-20.84-28.64-51.81-21.13-70.56-47C923.1,321,923,283.12,941.8,259.25c27.67-35.12,89.64-31.51,113.89-4.95,23.56,25.79,9.76,71.25-6.19,123.79A357.51,357.51,0,0,1,1023.5,441.22Z"/><path class="cls-19" d="M948.56,417.38c-22.56-13.84-41.62-17.76-55.35-18.6-18.66-1.15-28.34,3.34-38.33-3.75-12.66-9-16.37-29.78-11.43-45.09,9.81-30.36,55-43.1,69-31.08,10.31,8.86-1.76,26.5,6.92,55.21C925.53,394.47,938.6,408.65,948.56,417.38Z"/><path class="cls-18" d="M916.6,299.72c-12.58-14.92-25-22.08-34.43-25.85-12.79-5.12-20.61-4.23-26-11.5-6.78-9.21-4.56-24.64,2.45-34.21,13.9-19,48.49-17.42,55.5-5.76,5.16,8.59-7.37,18.13-7.95,40.24C905.79,278.34,911.65,291.3,916.6,299.72Z"/><path class="cls-18" d="M1033,226.68c-12.58-14.91-25-22.07-34.43-25.85-12.79-5.12-20.61-4.23-26-11.5-6.78-9.21-4.56-24.64,2.45-34.21,13.91-19,48.49-17.41,55.5-5.76,5.16,8.59-7.37,18.14-7.95,40.24C1022.15,205.31,1028,218.26,1033,226.68Z"/><path class="cls-19" d="M1080.89,327.27c7.63-39.84,2.94-69.28-3.28-89.43-8.46-27.36-20.12-38.82-15.38-57,6-23,33.84-39.58,58.47-40.78,48.84-2.37,91.55,55.54,81.89,82.11-7.12,19.58-38.94,11.82-75.4,39.79C1101.28,281.85,1088,308.26,1080.89,327.27Z"/><path class="cls-20" d="M960.9,331.58c5.75-10.18,11.11-19.67,16.46-29.16,5.15-9.12,10.33-18.23,15.42-27.38,1-1.74,1.94-2.81,4.22-2.79,12.33.11,24.66.05,36.91.05.92,1.36-.14,2.15-.61,3-9.9,17.59-19.89,35.12-29.68,52.77-1.47,2.64-3,3.66-6.1,3.6C985.66,331.47,973.78,331.58,960.9,331.58Z"/><path class="cls-21" d="M1034.83,291.16c0,12.18-.06,24.37,0,36.55,0,2.76-.76,3.88-3.67,3.78-5.55-.18-11.11,0-16.67-.06-1.54,0-3.6.19-2.15-2.39q10.74-19.12,21.58-38.19Z"/><path class="cls-20" d="M984.5,272.31,961.81,312.5l-.92-.08v-8.84c0-9.24,0-18.47,0-27.71,0-1.5-.76-3.6,2.13-3.57C969.93,272.35,976.8,272.31,984.5,272.31Z"/><path class="cls-22" d="M1099.59,235.13V149.44l.91-.19c1.77,3,3.55,5.95,5.78,9.69v-5.81l.59-.26,6,9.88c.12-2.53.19-4.19.3-6.7l5.49,9.47.55-.1v-5l.6-.13,5.32,9.08.55-.14V164.5l.67-.24,5.54,9.41c.13-2.44.22-4.09.35-6.54l6.2,10.43c.14-2.44.24-4.09.39-6.45,2.06,3.47,3.79,6.37,6,10.12v-6.14l.67-.26c1.82,3.06,3.65,6.12,5.93,9.93V179c2.75,4.64,6.71,8.45,6.54,14.51-.35,11.78-.13,23.58-.06,35.36,0,1.06-.83,2.58,1,3.11a61.17,61.17,0,0,1-15.51,7.95,12.51,12.51,0,0,1-4.05-1.55c.62.91,1.66,1.14,1.52,2.18a49,49,0,0,1-20.32,1.78c-4.38-2.52-8.7-5.13-13.57-8,3,2.95,7.17,3.33,9,6.87A39.66,39.66,0,0,1,1099.59,235.13Z"/><path class="cls-23" d="M1116,241.21c-3.32-2.05-6.65-4.1-10-6.17-.56-.35-1.23-.81-.76-1.58.32-.53,1-.46,1.51-.15q6.86,4.17,13.7,8.38c.12.07.07.42.09.63Z"/><path class="cls-24" d="M1140.86,240.54c-.81-1.27-4-1.31-2.9-3,.93-1.47,2.75.83,4.22,1.36a4.72,4.72,0,0,1,1.21,1Z"/><path class="cls-25" d="M1109.17,169.81a6,6,0,0,1,4.37,1.39,14,14,0,0,1,5.45,10.05,4.26,4.26,0,0,1-1.94,4.38,4,4,0,0,1-4.45-.48,13.17,13.17,0,0,1-6.23-11.28C1106.36,171.63,1107.32,170,1109.17,169.81Z"/><path class="cls-26" d="M1126.46,185c.28.16.78.42,1.26.71,7.5,4.45,15,8.89,22.48,13.38.77.47,2.35.85,1.65,2s-1.81,0-2.61-.44q-11.27-6.66-22.48-13.39c-.7-.42-1.82-.62-1.53-1.86C1125.35,185,1125.72,184.76,1126.46,185Z"/><path class="cls-27" d="M1130.63,234.93c-.39-.22-1-.54-1.56-.88-7.33-4.35-14.67-8.69-22-13.08-.83-.5-2.63-.84-1.71-2.25.69-1.07,1.82.16,2.61.62q11.29,6.67,22.54,13.43c.62.37,1.56.61,1.32,1.67C1131.76,235,1131.36,235.13,1130.63,234.93Z"/><path class="cls-28" d="M1106.07,203.49c.51.3,1,.56,1.45.84q11.24,6.69,22.45,13.38c.84.5,2.22,1.17,1.61,2.15-.75,1.21-1.72-.1-2.52-.57q-11.1-6.56-22.18-13.16c-.74-.44-1.64-.88-1.55-2C1105.35,204,1105.75,203.76,1106.07,203.49Z"/><path class="cls-28" d="M1151.82,230c-.22,1.15-.93,1.21-1.73.77q-5.85-3.23-11.67-6.51c-.5-.28-1-.74-.68-1.33a1.2,1.2,0,0,1,1.13-.33c4.14,2.18,8.25,4.41,12.35,6.65C1151.49,229.38,1151.64,229.74,1151.82,230Z"/><path class="cls-29" d="M1148.29,215c1.9.29,2.19,1.83,2.57,3.3,0,1,.12,2.09-.7,2.92-.66,1.37-1.62,1.19-2.68.53a1.55,1.55,0,0,1-.37-1.25c.87-1.26.32-2.5,0-3.75C1147.06,215.85,1147.33,215.17,1148.29,215Z"/><path class="cls-30" d="M1110,192.07a5.11,5.11,0,0,1,1.75,3.37c-.28.34-.31.83-.65,1.15a2.5,2.5,0,0,1-1.63.72,1.27,1.27,0,0,1-1.13-.63l-1.4-1.28c-.31-.76-.47-1.5.28-2.12C1108.7,194.12,1108.82,191.86,1110,192.07Z"/><path class="cls-31" d="M1112.48,196.68c.9.68,2.07,1.51,1.53,2.64a3.46,3.46,0,0,1-2.91,1.85c-1.22,0-1.38-1.25-1.43-2.29a2.16,2.16,0,0,1,.48-.72c.54-.48.94-1.1,1.51-1.56A.81.81,0,0,1,1112.48,196.68Z"/><path class="cls-32" d="M1146.85,213a2.1,2.1,0,0,1,1.3,1.36c-2.17.74-1.38,2.62-1.6,4.11-.22.45-.51.8-1.09.58l-1.36-1.39a3.48,3.48,0,0,1-.07-4.26A2.17,2.17,0,0,1,1146.85,213Z"/><path class="cls-33" d="M1146.1,218.41c0-1.72-2.37-4.59,2.05-4.07a2.82,2.82,0,0,0,.14.64c-.37.71-1,1.31-.91,2.22a1.11,1.11,0,0,1-.39,1.28A.87.87,0,0,1,1146.1,218.41Z"/><path class="cls-34" d="M1110,192.07c-1.46,2.16-1.46,2.16-2.32,1.48-.91-1.34-.92-1.55-.12-2.1C1108.5,191.21,1109.43,190.94,1110,192.07Z"/><path class="cls-35" d="M1107.57,191.45c-.71.74.44,1.38.12,2.1-1.08.28-.47,1.24-.74,1.85-1.16-1.36-.84-3.11-.45-4.4C1106.94,189.54,1107.35,190.85,1107.57,191.45Z"/><path class="cls-36" d="M1144,213.6c0,1.34.08,2.69.11,4-1.85-1-1.66-2.46-.71-4C1143.57,213.35,1143.77,213.35,1144,213.6Z"/><path class="cls-37" d="M1146.1,218.41a5.42,5.42,0,0,1,.56.22c.83.33.8,1.05.83,1.76,0,.45,0,.89,0,1.34-1.2-.51-2.34-1-2-2.7Z"/><path class="cls-38" d="M1150.16,221.2c.16-1-.31-2.14.7-2.92C1151.74,219.52,1152,220.6,1150.16,221.2Z"/><path class="cls-39" d="M1144,213.6a4,4,0,0,0-.6,0c.81-2,2-2,3.46-.65A4.76,4.76,0,0,0,1144,213.6Z"/><path class="cls-40" d="M1110.52,198.71l-.85.17c-.52-.08-1.09-.08-1.22-.78a3.78,3.78,0,0,1,.56-.5,5.52,5.52,0,0,1,.69-.34l.38-.09a.86.86,0,0,1,.63.41A1.3,1.3,0,0,1,1110.52,198.71Z"/><path class="cls-41" d="M1112.48,196.68l-.9.23a.64.64,0,0,1-.7-.12.62.62,0,0,1,.2-.68l.68-.67Z"/><path class="cls-42" d="M1108.35,196.68l1.33.2c.26.11.35.23.29.38s-.13.23-.21.23v0a1.6,1.6,0,0,1-.69.31.89.89,0,0,1-.67-.28Z"/><path class="cls-43" d="M1108.41,197.5a3.18,3.18,0,0,1,.62,0,.42.42,0,0,1,.19.43c0,.16-.08.24-.13.24l-.64,0A.83.83,0,0,1,1108.41,197.5Z"/><path class="cls-44" d="M1113.57,180.73c-2.25.41-3.92,0-3.83-2.79,0-1.56.29-2.94,2.06-3.43,1.59.81,4.26.34,4,3.36a4.69,4.69,0,0,1-.26,1.9C1115.06,180.48,1114.59,181.16,1113.57,180.73Z"/><path class="cls-45" d="M1111.8,174.51l-2.06,3.43c-1.3-1.47-.51-3.19-.65-4.86C1110.48,172.78,1111.19,173.53,1111.8,174.51Z"/><path class="cls-46" d="M1113.57,180.73a2.62,2.62,0,0,0,1.56-1.43c1.42,1.14,1.43,2.11,0,3.34A2,2,0,0,1,1113.57,180.73Z"/><path class="cls-47" d="M1115.16,182.64a2.26,2.26,0,0,0,0-3.34,1.53,1.53,0,0,1,.66-1.43c1.3,1.44.65,3.16.55,4.74C1116.28,183.41,1115.58,183.09,1115.16,182.64Z"/><path class="cls-48" d="M1147.49,220.39c-.82-.33-.82-1-.82-1.76.23-.48.47-1,.71-1.43C1148.93,218.21,1149.53,219.25,1147.49,220.39Z"/><path class="cls-49" d="M1109.76,197.49c0-.2-.06-.4-.08-.61l1.4-.77.06.89a.59.59,0,0,1-.64.56Z"/><path class="cls-50" d="M1110.5,197.56l.64-.57a3.11,3.11,0,0,0,.44-.08c.34,1-.23,1.48-1.06,1.8C1110.51,198.33,1110.51,198,1110.5,197.56Z"/><path class="cls-51" d="M1109.09,198.14l-.06-.67h.74Z"/><path class="cls-52" d="M858.39,377l8.1-13.39c.07-.15.14-.34.3-.36,1.4-.17,2.82-.51,4.15.28.18.29,0,.6,0,.93.36-.25.45-.67.7-1,1-.32,1.91-.82,2.72.28.08.18.11.43.36.42s.24-.46.45-.63a.86.86,0,0,1,.57-.23c2.67-.16,5.34,0,8,.05a1,1,0,0,1,.58.21c.26.28-.16.69.17,1L877.08,377a4,4,0,0,0-1.06.61,2.2,2.2,0,0,1-.3.19l-.32.16a39.72,39.72,0,0,1-6.36,0c-3,0-5.92-.15-8.88-.15a2.79,2.79,0,0,1-1.53-.44Z"/><path class="cls-53" d="M858.63,377.43c3,.31,6,.18,9,.29,2.24.08,4.48.06,6.73.12a2,2,0,0,0,1.09-.17c.28.33,0,.49-.2.68-3.33.18-6.65-.09-10-.1-2.08,0-4.16-.11-6.24-.16Z"/><path class="cls-54" d="M863.72,360.56c-.1-.47.23-.78.44-1.13q5.31-8.88,10.62-17.76c.28-.46.49-1,.74-1.44-.09-.49.22-.71.6-.89,1.75-2.89,3.54-5.76,5.24-8.68a1.79,1.79,0,0,1,1.9-1c6.63.16,13.27.28,19.91.4,2.21.05,2.82.57,3.33,2.91-.49-.08-.63-.51-.86-.85-.64-1-.7-1-1.29,0-1.57,2.57-3.1,5.16-4.65,7.74q-6,10.05-12.07,20.1a2.6,2.6,0,0,1-.7.88,2.31,2.31,0,0,1-.51.22,10.18,10.18,0,0,1-3.48.16c-6.09-.11-12.19-.26-18.28-.36A1.5,1.5,0,0,1,863.72,360.56Z"/><path class="cls-52" d="M886.78,360.76q8.72-14.55,17.44-29.1c.21-.34.35-.89.78-.9s.52.58.73.91.51.87.77,1.3l-8.21,13.8q-4.66,7.8-9.36,15.6c-.21.36-.47.68-.71,1A3,3,0,0,1,886.78,360.76Z"/><path class="cls-55" d="M863.72,360.56c6.21.11,12.42.23,18.63.29,1.36,0,2.74.38,4.07-.19a9.22,9.22,0,0,1,1.59,2.88c-1,.29-2-.2-3,.22a.56.56,0,0,1-.56,0,60.64,60.64,0,0,0-9.24-.06c-.26.48-.6.59-1,.23,0-.73-.5-.49-.85-.48-.53,0-1,.11-1.57.17a.78.78,0,0,1-.81.14,6.94,6.94,0,0,0-4.41-.16c0-.07-.07-.21-.11-.21C864.56,363.32,864.32,361.77,863.72,360.56Z"/><path class="cls-56" d="M888,363.54l-1.59-2.88.36.1,1.44,2.63C888.24,363.58,888.18,363.64,888,363.54Z"/><path class="cls-57" d="M884.42,363.76a.52.52,0,0,1,.56,0,1.3,1.3,0,0,1-.45.78C883.71,364.39,884.27,364.05,884.42,363.76Z"/><path class="cls-58" d="M875.86,377.4c.43,0,.58-1,1.22-.38a.45.45,0,0,1-.36.43C876.43,377.47,876.11,378,875.86,377.4Z"/><path class="cls-59" d="M875.86,377.4l.86.05a1,1,0,0,1-.74.7.5.5,0,0,1-.36-.62Z"/><path class="cls-58" d="M875.62,377.53l.36.62a.71.71,0,0,1-.77.2l.2-.68Z"/><path class="cls-60" d="M865.39,374a2.31,2.31,0,0,1-1.54,1.32c-.56.19-1.28.45-1.69-.19s.15-1.13.63-1.53c.51,0,1,.33,1.49.21C864.65,373.85,865.1,373.45,865.39,374Z"/><path class="cls-61" d="M862.87,373.32a2.23,2.23,0,0,1,1.93-1.68c.54-.12,1.16-.23,1.4.4a.94.94,0,0,1-.66,1.28A11.92,11.92,0,0,0,862.87,373.32Z"/><path class="cls-62" d="M862.87,373.32c.89-.49,1.78-.85,2.67,0l0,0a2.36,2.36,0,0,1-1.36.7,1.12,1.12,0,0,1-1.42-.46C862.82,373.51,862.84,373.42,862.87,373.32Z"/><path class="cls-63" d="M870.9,363.76c.25-.11.5-.32.81-.14,0,.15.07.37,0,.46-.31.34-.55,1.07-1,.8S870.9,364.17,870.9,363.76Z"/><path class="cls-64" d="M869.38,372.93a2.26,2.26,0,0,1-.22-.44c-.11-.36,0-.8.27-.87a1,1,0,0,1,.83.44c.27.47-.53.26-.52.64C869.71,372.92,869.57,373,869.38,372.93Z"/><path class="cls-65" d="M867.49,366.45c-.43-1,.68-.59.88-1,.19.05.44,0,.5.28a1.21,1.21,0,0,1-1,.87h-.14A1.35,1.35,0,0,0,867.49,366.45Z"/><path class="cls-66" d="M873.32,367.09l.21.34c-.11.4-.5.39-.77.55a.4.4,0,0,1-.27.14c-.76-.94.13-1,.67-1.3C873.34,366.83,873.39,366.92,873.32,367.09Z"/><path class="cls-67" d="M874.13,363.93a1.6,1.6,0,0,0,1-.23c.2.33.45.75-.13.87C874.66,364.65,874.08,364.66,874.13,363.93Z"/><path class="cls-68" d="M873.32,367.09l-.16-.27c0-.07.1-.15.1-.22,0-.5.32-.63.69-.71a.3.3,0,0,1,.39.21c0,.43-.34.52-.61.7Z"/><path class="cls-69" d="M867.29,368.1c.19.58-.25.7-.63.85-.21.09-.26-.13-.34-.26-.26-.44.22-.42.38-.6S867.09,367.92,867.29,368.1Z"/><path class="cls-70" d="M869.38,372.93l.36-.23c.13.37.62.71.08,1.13-.3.24-.5.17-.63-.18C869.28,373.42,868.9,373.06,869.38,372.93Z"/><path class="cls-71" d="M869.19,373.65l.63.18c.08.38,0,.77-.34.93s-.18-.51-.54-.49c-.1,0-.14,0-.14-.09s0-.09,0-.1C868.8,373.81,869,373.72,869.19,373.65Z"/><path class="cls-72" d="M870,365.48a.3.3,0,0,1,.46.14c.17.36,0,.62-.3.82s-.36.05-.39-.12A1.18,1.18,0,0,1,870,365.48Z"/><path class="cls-73" d="M867.29,368.1h-.59c-.13-.28-.19-.63.26-.52.62.16.59-.36.81-.62h0C868.06,367.52,867.72,367.83,867.29,368.1Z"/><path class="cls-74" d="M868.83,367.79c-.25-.51.1-.68.49-.77a.28.28,0,0,1,.33.29c0,.57-.49.45-.84.48Z"/><path class="cls-75" d="M868.81,367.79c.2.33.36.66-.12.9-.11.06-.21.21-.3-.1-.14-.47.12-.63.44-.8Z"/><path class="cls-76" d="M868.84,374.08c0,.06.06.13.1.2l-.64.39a.2.2,0,0,1-.26.13C867.35,373.49,868.85,374.63,868.84,374.08Z"/><path class="cls-77" d="M864.21,374.06l1.36-.7-.18.64C865,373.71,864.62,374.32,864.21,374.06Z"/><path class="cls-78" d="M871.06,369.52a1,1,0,0,1-.53.81C870.29,369.75,870.62,369.62,871.06,369.52Z"/><path class="cls-79" d="M868,374.8l.26-.13c.15.17.45.32.07.56-.17.11-.38.24-.55,0S867.87,374.91,868,374.8Z"/><path class="cls-80" d="M872.49,368.12a.66.66,0,0,1,.19-.09l.08.15c.18.34.23.75-.26.65S872.85,368.36,872.49,368.12Z"/><path class="cls-81" d="M868.87,365.72l-.5-.28c.22-.07.51-.26.64-.18S869,365.58,868.87,365.72Z"/><path class="cls-82" d="M872.76,368.18a1.09,1.09,0,0,1-.08-.15c.12-.43.65-.28.85-.6C873.56,368,873.05,368,872.76,368.18Z"/><path class="cls-83" d="M867.89,366.59l-.13.36h0l-.12-.25a.13.13,0,0,1,.18-.11Z"/><path class="cls-84" d="M867.83,366.59l-.18.11-.16-.25Z"/><path class="cls-85" d="M878.13,342a4.44,4.44,0,0,1-2-.15c1.83-3.07,3.61-6.07,5.39-9.08a.94.94,0,0,1,.93-.49l18.76.4c.24,0,.48.06.89.12-1.14,1.92-2.21,3.74-3.29,5.55-.62,1-1.28,2.06-1.86,3.12a1.41,1.41,0,0,1-2,.78.51.51,0,0,1,.19-.29,2.51,2.51,0,0,0,1.48-1.27c1.24-2.09,2.45-4.19,3.74-6.25.4-.64.38-1-.5-1-5.57,0-11.13-.23-16.7-.3a1.41,1.41,0,0,0-1.35.73c-1.41,2.23-2.68,4.54-4.1,6.77-.53.85.32.71.62,1C878.36,341.76,878.41,341.92,878.13,342Z"/><path class="cls-52" d="M878.53,352.09a13,13,0,0,0,2.85.16c.86.07,1.19.32.55,1.14s-3.71,1.37-4.71.73c-.68-.43,0-.87,0-1.31A2.1,2.1,0,0,1,878.53,352.09Z"/><path class="cls-86" d="M889.31,350.73a3.25,3.25,0,0,1-1.56.19,3.14,3.14,0,0,0-1-.12c-.5.1-1.08.41-1.21-.31a1.35,1.35,0,0,1,1-1.57,15,15,0,0,1,4-.1c.45,0,.32.37.26.66C890.56,350.09,890.07,350.33,889.31,350.73Z"/><path class="cls-86" d="M891.41,347.29c-.88-.05-1.75.12-2.66,0-1.3-.14-1.27-.67-.8-1.56a1.45,1.45,0,0,1,1.11-.6l2.73.11c1.31,0,1.4.2.7,1.45A1.59,1.59,0,0,1,891.41,347.29Z"/><path class="cls-86" d="M879.16,346.8a9,9,0,0,1-4.08.19c-.45-.06-.43-.48-.25-.79.3-.5.61-1,1.26-1.12a13.51,13.51,0,0,1,3.48,0c.22,0,.53.05.55.39C880.15,346.21,879.39,346.33,879.16,346.8Z"/><path class="cls-86" d="M880.4,348.78a10.38,10.38,0,0,1,3.52,0c.55.08.55.59.28,1a1.82,1.82,0,0,1-1.84,1,13.93,13.93,0,0,0-1.94-.1c-.51,0-1.22.28-1.33-.46S879.56,349.19,880.4,348.78Z"/><path class="cls-86" d="M874.24,354.18c-1,0-2-.08-3-.07s-1-.41-.58-1.07a1.52,1.52,0,0,1,1.38-.9h2.49c1.46,0,1.55.19.78,1.45A1.59,1.59,0,0,1,874.24,354.18Z"/><path class="cls-86" d="M874.23,348.44a10.75,10.75,0,0,0,2.33.16c.47,0,1.32-.26,1.3.49a1.56,1.56,0,0,1-1.32,1.57,12.94,12.94,0,0,1-3.11-.07c-1.37-.2-.7-.94-.3-1.56A1.44,1.44,0,0,1,874.23,348.44Z"/><path class="cls-52" d="M885,352.28c.82,0,1.65.06,2.47.12.45,0,1.22-.24,1.16.5s-.34,1.45-1.24,1.44-1.94.1-2.92.06c-1.27,0-1.17-.54-.79-1.37A1.89,1.89,0,0,1,885,352.28Z"/><path class="cls-86" d="M885.6,346.75c-1.34.85-2.76.21-4.09.42-.39.06-.46-.46-.26-.77.4-.62.78-1.29,1.7-1.25s1.67,0,2.5,0c.38,0,1-.23,1.08.32s-.31.83-.68,1.12A2.76,2.76,0,0,1,885.6,346.75Z"/><path class="cls-87" d="M879.19,357.75a15.22,15.22,0,0,1-4.21,0c-.43,0-.4-.43-.25-.79a1.88,1.88,0,0,1,1.58-1.27c1.07-.09,2.16,0,3.24,0,.32,0,.62.14.63.49C880.2,356.89,879.65,357.27,879.19,357.75Z"/><path class="cls-88" d="M872.73,357.6a14.22,14.22,0,0,1-4.22,0c-.3,0-.3-.37-.2-.62.28-.68.68-1.32,1.48-1.36,1.12-.06,2.24,0,3.36,0,.29,0,.64.09.6.48A2.24,2.24,0,0,1,872.73,357.6Z"/><path class="cls-89" d="M882.62,355.85c.87,0,1.75,0,2.63,0,.43,0,1-.21,1.24.32s-.24.83-.42,1.23a1.57,1.57,0,0,1-1.11.6,24.37,24.37,0,0,0-2.57-.06c-1.45-.21-1.47-.09-.87-1.49A1.55,1.55,0,0,1,882.62,355.85Z"/><path class="cls-90" d="M884,342.15a7.68,7.68,0,0,1-2.14-.17.24.24,0,0,1-.16-.15c0-.07,0-.11,0-.12a3,3,0,0,1,2.39,0A.35.35,0,0,1,884,342.15Z"/><path class="cls-91" d="M891.75,342.21a5.36,5.36,0,0,1-2.39-.1.51.51,0,0,1,.19-.29,2.52,2.52,0,0,1,2.08.07A.39.39,0,0,1,891.75,342.21Z"/><path class="cls-92" d="M884,342.15l.1-.3a1.81,1.81,0,0,1,2-.07.39.39,0,0,1,.12.32Z"/><path class="cls-93" d="M889.6,342l-.24.15a3.28,3.28,0,0,1-2,0,.59.59,0,0,1,.21-.3C888.25,341.64,889,341.28,889.6,342Z"/><path class="cls-94" d="M878.13,342l.11-.3a1.34,1.34,0,0,1,1.83.11.19.19,0,0,1-.28.15A3,3,0,0,1,878.13,342Z"/><path class="cls-95" d="M879.79,341.93l.24-.15a1.32,1.32,0,0,1,1.7,0l.11.24A3.42,3.42,0,0,1,879.79,341.93Z"/><path class="cls-94" d="M891.75,342.21c0-.06-.07-.13-.11-.2a1.22,1.22,0,0,1,1.84.09c0,.16-.11.21-.26.16A3.83,3.83,0,0,1,891.75,342.21Z"/><path class="cls-96" d="M893.22,342.26l.24-.16a1,1,0,0,1,1.66,0l-.24.15A3,3,0,0,1,893.22,342.26Z"/><path class="cls-94" d="M887.58,341.92l-.25.16a1.49,1.49,0,0,1-1.1,0l-.12-.22C886.61,341.5,887.11,341.34,887.58,341.92Z"/><path class="cls-97" d="M885,352.28l-1.32.75A1.11,1.11,0,0,1,885,352.28Z"/><path class="cls-98" d="M878.53,352.09l-1.32.72A1.13,1.13,0,0,1,878.53,352.09Z"/><path class="cls-99" d="M891.41,347.29l1.08-.59A.84.84,0,0,1,891.41,347.29Z"/><path class="cls-100" d="M874.23,348.44l-1.1.59A.84.84,0,0,1,874.23,348.44Z"/><path class="cls-101" d="M889.06,345.14l-1.11.6A.84.84,0,0,1,889.06,345.14Z"/><path class="cls-102" d="M885,358l1.11-.6A.86.86,0,0,1,885,358Z"/><path class="cls-103" d="M882.62,355.85l-1.1.62A.87.87,0,0,1,882.62,355.85Z"/><path class="cls-104" d="M874.24,354.18l1.08-.59A.84.84,0,0,1,874.24,354.18Z"/><path class="cls-105" d="M887.58,341.92l-1.47,0-2,0-2.35-.11-1.7,0-1.79-.11-1.5,0c.81-1.4,1.53-2.67,2.29-3.93s1.69-2.68,2.45-4.07a1.44,1.44,0,0,1,1.49-.86l17,.32c1.28,0,1.36.15.71,1.23-1.39,2.32-2.84,4.62-4.2,7a1.29,1.29,0,0,1-1.38.77,3.22,3.22,0,0,0-1.66,0,3.62,3.62,0,0,0-1.82-.09l-2-.05A7.59,7.59,0,0,0,887.58,341.92Z"/><path class="cls-106" d="M877.74,357.42a10,10,0,0,1-2.45-.11c.49-1,1.09-1.17,3.87-1C879,357.05,878.24,357.1,877.74,357.42Z"/><path class="cls-107" d="M877.74,357.42c.22-.69,1-.71,1.42-1.09.3-.11.5-.05.36.3A1.35,1.35,0,0,1,877.74,357.42Z"/><path class="cls-108" d="M868.74,357.15c.28-.65.6-1,1.19-.95a11.74,11.74,0,0,0,2.37-.12c.28,0,.74-.27.81.22s-.26.69-.64.84a7.45,7.45,0,0,1-2.11.1A12.3,12.3,0,0,1,868.74,357.15Z"/><path class="cls-109" d="M883.82,357.49a5.28,5.28,0,0,1-2.28-.16c1-1.42,2.41-.92,3.7-.91.28.54-.15.65-.49.77S884.07,357.21,883.82,357.49Z"/><path class="cls-110" d="M883.82,357.49c.14-.8,1.34-.19,1.42-1.07.23,0,.61,0,.68.09.19.31-.17.47-.36.66C885.05,357.68,884.4,357.4,883.82,357.49Z"/><path class="cls-111" d="M890.47,337.15c.29-.23.18-.49.08-.76a.34.34,0,0,1,.34-.5c.47,0,.27.38.26.63s.4.52.2.86c0,.12-.08.25,0,.35.13.4.2.83-.34.85s0-.6-.42-.77c-.41.13-.66.76-1.29.71,0-.69.94-.54.92-1.17A.22.22,0,0,1,890.47,337.15Z"/><path class="cls-112" d="M886.49,336.4c-.2-.35,0-.63.3-.61.52,0,.13.54.31.8.48,0,.7-.91,1.34-.42l-.84.68s0,.08,0,.1.07,0,.11.06.18.29-.11.3-.54,0-.44.4.19.87-.39.79-.13-.54-.17-.84C886,337.3,886.71,336.81,886.49,336.4Z"/><path class="cls-113" d="M894.46,337.18a1.18,1.18,0,0,0,.16-.44c0-.31-.27-.77.24-.78.68,0,.2.54.27.83a.62.62,0,0,1,.28.65,1.07,1.07,0,0,0-.09.34c0,.36.23.83-.33.87s0-.65-.41-.79c-.5.11-.66.88-1.42.66.29-.51.79-.63,1.16-.9C894.39,337.48,894.35,337.3,894.46,337.18Z"/><path class="cls-112" d="M883.57,337.24c-.21.07-.51,0-.54.37s.48.7-.08.77-.36-.5-.42-.83c-.42-.34,0-.67,0-1s-.36-.51,0-.75.46-.08.55.21.25.5.25.79l.31.16C883.8,337.11,883.83,337.22,883.57,337.24Z"/><path class="cls-114" d="M882.56,336.55l0,1c-.48.3-.74-.6-1.24-.24,0,0-.18-.15-.18-.24s.16-.28.33-.3C881.82,336.74,882.27,337.05,882.56,336.55Z"/><path class="cls-115" d="M886.49,336.4c.35.39-.13.86.12,1.26h-.24c-.1,0-.15,0-.16-.1a.17.17,0,0,1,0-.12c-.36-.2-.82.09-1.17-.23C885.21,336.34,886.47,337.44,886.49,336.4Z"/><path class="cls-116" d="M891.35,337.38c-.1-.27-.34-.52-.2-.86l.39.11a.39.39,0,0,1,.27.44c.27.14.66-.12.87.26C892.25,337.88,891.79,337.44,891.35,337.38Z"/><path class="cls-117" d="M894.46,337.18l-.14.44c-.27-.37-1.1.26-1-.37S894.05,337.08,894.46,337.18Z"/><path class="cls-118" d="M886.24,337.45a1.59,1.59,0,0,0,.13.22c-.44.2-.61.85-1.39.76C885.31,337.85,885.83,337.72,886.24,337.45Z"/><path class="cls-111" d="M890.47,337.15l-.29.2-1,.15C889.49,336.59,890,337.05,890.47,337.15Z"/><path class="cls-119" d="M883.78,336c.21-.09.45-.42.64-.19s-.14.4-.32.53a5.7,5.7,0,0,1-.54.3C883.17,336.29,883.75,336.25,883.78,336Z"/><path class="cls-111" d="M891.81,337.07l-.27-.44c.37-.18.48-.75,1.09-.7C892.59,336.53,891.87,336.57,891.81,337.07Z"/><path class="cls-120" d="M887.61,337.31l.11-.3a1,1,0,0,1,.8,0,.39.39,0,0,1,0,.31C888.21,337.56,887.91,337.44,887.61,337.31Z"/><path class="cls-121" d="M883.57,337.24l.1-.28a1,1,0,0,1,.81,0,.36.36,0,0,1,0,.32C884.18,337.49,883.87,337.38,883.57,337.24Z"/><path class="cls-122" d="M881.86,338.1c-.31.26-.53.52-.74.25s.06-.34.29-.33S881.65,338.06,881.86,338.1Z"/><path class="cls-123" d="M883.78,336l-.22.64a.9.9,0,0,1-.2.14c-.38-.16-.45-.43-.25-.79C883.33,336.17,883.56,336.08,883.78,336Z"/><path class="cls-124" d="M895.38,336.8l.39-.27c.23-.17.39-.64.76-.16-.2.27-.72.23-.7.72C895.45,337.35,895.37,337.14,895.38,336.8Z"/><path class="cls-125" d="M895.38,336.8a.46.46,0,0,0,.45.29l.36.06a.37.37,0,0,1-.13.4l-.65-.11c-.09-.22-.19-.43-.28-.65A.71.71,0,0,1,895.38,336.8Z"/><path class="cls-126" d="M896.06,337.55l.13-.4c.19-.06.48-.17.49.11C896.69,337.69,896.36,337.64,896.06,337.55Z"/><path class="cls-127" d="M896.53,336.37c-.3-.16-.51.09-.76.16.17-.34.37-.67.81-.54C896.76,336.05,896.69,336.25,896.53,336.37Z"/><path class="cls-128" d="M893.7,231.22a9.61,9.61,0,0,0-4.42-1.06,9.44,9.44,0,0,0-7,3.07,9.44,9.44,0,0,0-7-3.07,9.58,9.58,0,0,0-4.42,1.06,8.39,8.39,0,0,0-4.72,7.44,7.88,7.88,0,0,0,.45,2.62c1.56,6.55,11.57,14.82,15.72,14.82s14.15-8.27,15.72-14.82a7.88,7.88,0,0,0,.45-2.62A8.4,8.4,0,0,0,893.7,231.22Zm1.78,9.31a.62.62,0,0,1-.59.4.71.71,0,0,1-.2,0,.6.6,0,0,1-.38-.76,4.63,4.63,0,0,0,.26-1.49,4.82,4.82,0,0,0-2.72-4.27,5.46,5.46,0,0,0-2.57-.63.6.6,0,1,1,0-1.19,6.87,6.87,0,0,1,3.15.76,6,6,0,0,1,3.37,5.33A5.53,5.53,0,0,1,895.48,240.53Z"/><path class="cls-129" d="M1006.49,296.67a6.82,6.82,0,0,0-3.13-.75,6.79,6.79,0,0,1-10,0,6.79,6.79,0,0,0-3.13.75,6,6,0,0,0-3.34,5.26,5.47,5.47,0,0,0,.32,1.86c1.1,4.64,8.19,10.49,11.13,10.49s10-5.85,11.12-10.49a5.72,5.72,0,0,0,.32-1.86A6,6,0,0,0,1006.49,296.67Zm1.26,6.59a.45.45,0,0,1-.42.28h-.14a.42.42,0,0,1-.27-.54,3.29,3.29,0,0,0,.19-1.06,3.41,3.41,0,0,0-1.93-3,3.85,3.85,0,0,0-1.82-.44.43.43,0,1,1,0-.85,5,5,0,0,1,2.23.54,4.28,4.28,0,0,1,2.39,3.77A4.09,4.09,0,0,1,1007.75,303.26Z"/><path class="cls-130" d="M1012.53,160.66a9.54,9.54,0,0,0-4.41-1.06,9.42,9.42,0,0,0-7,3.07,9.64,9.64,0,0,0-11.45-2,8.39,8.39,0,0,0-4.72,7.44,7.88,7.88,0,0,0,.45,2.62c1.56,6.55,11.57,14.82,15.72,14.82s14.14-8.27,15.71-14.82a7.64,7.64,0,0,0,.46-2.62A8.39,8.39,0,0,0,1012.53,160.66Zm1.78,9.31a.6.6,0,0,1-.58.4.68.68,0,0,1-.2,0,.6.6,0,0,1-.38-.76,4.63,4.63,0,0,0,.26-1.49,4.83,4.83,0,0,0-2.72-4.27,5.46,5.46,0,0,0-2.57-.63.6.6,0,1,1,0-1.19,6.86,6.86,0,0,1,3.14.76,6,6,0,0,1,3.38,5.33A5.5,5.5,0,0,1,1014.31,170Z"/></g></svg>